<?xml version="1.0" encoding="UTF-8" standalone="no"?>
<svg
   version="1.0"
   width="2096.000000pt"
   height="1648.000000pt"
   viewBox="0 0 2096.000000 1648.000000"
   preserveAspectRatio="xMidYMid meet"
   id="svg10"
   sodipodi:docname="old-church-slavonic.svg"
   inkscape:version="1.1.2 (0a00cf5339, 2022-02-04)"
   xmlns:inkscape="http://www.inkscape.org/namespaces/inkscape"
   xmlns:sodipodi="http://sodipodi.sourceforge.net/DTD/sodipodi-0.dtd"
   xmlns="http://www.w3.org/2000/svg"
   xmlns:svg="http://www.w3.org/2000/svg"
   xmlns:rdf="http://www.w3.org/1999/02/22-rdf-syntax-ns#"
   xmlns:cc="http://creativecommons.org/ns#"
   xmlns:dc="http://purl.org/dc/elements/1.1/">
  <defs
     id="defs14" />
  <sodipodi:namedview
     pagecolor="#ffffff"
     bordercolor="#666666"
     borderopacity="1"
     objecttolerance="10"
     gridtolerance="10"
     guidetolerance="10"
     inkscape:pageopacity="0"
     inkscape:pageshadow="2"
     inkscape:window-width="1366"
     inkscape:window-height="700"
     id="namedview12"
     showgrid="false"
     inkscape:zoom="0.21480583"
     inkscape:cx="1310.4858"
     inkscape:cy="1173.1525"
     inkscape:window-x="0"
     inkscape:window-y="40"
     inkscape:window-maximized="1"
     inkscape:current-layer="svg10"
     inkscape:snap-bbox="true"
     inkscape:bbox-paths="true"
     inkscape:bbox-nodes="true"
     inkscape:snap-bbox-edge-midpoints="true"
     inkscape:snap-bbox-midpoints="true"
     inkscape:pagecheckerboard="0"
     inkscape:document-units="pt" />
  <metadata
     id="metadata2">
Created by potrace 1.16, written by Peter Selinger 2001-2019
<rdf:RDF>
  <cc:Work
     rdf:about="">
    <dc:format>image/svg+xml</dc:format>
    <dc:type
       rdf:resource="http://purl.org/dc/dcmitype/StillImage" />
  </cc:Work>
</rdf:RDF>
</metadata>
  <path
     style="fill:#000000;fill-opacity:0.98431373;stroke:none;stroke-width:0.13333334"
     d="M 1214.4961 1040.4902 C 1216.8692 1040.5365 1219.0393 1040.8999 1220.8047 1041.4805 L 1220.8047 1040.4902 C 1218.6355 1040.4902 1216.6663 1040.4904 1214.4961 1040.4902 z "
     id="path1065"
     transform="scale(0.75)" />
  <path
     style="fill:#000000;fill-opacity:0.98431373;stroke:none;stroke-width:0.13333334"
     d="M 2470.9102 2098.8301 C 2466.6842 2099.503 2462.5918 2100.243 2458.2227 2100.8535 C 2449.3316 2102.0958 2440.111 2103.2122 2430.4277 2104.2168 C 2420.7445 2105.2214 2410.5979 2106.1153 2399.8555 2106.9102 C 2389.113 2107.705 2377.7756 2108.4026 2365.707 2109.0156 C 2353.6385 2109.6287 2340.8394 2110.1579 2327.1777 2110.6172 C 2324.5082 2110.7069 2321.3732 2110.7631 2318.6367 2110.8477 C 2325.9854 2110.7838 2346.7439 2110.7354 2348.666 2110.666 C 2403.3581 2108.6068 2440.3961 2105.2563 2470.9102 2098.8301 z "
     id="path1063"
     transform="scale(0.75)" />
  <path
     id="path4"
     style="fill:#fff200;fill-opacity:1;stroke:none;stroke-width:0.0999997"
     d="m 772.72544,57.461112 c -30.49587,-6e-4 -24.20783,0.026 -52.48098,0.028 h -32.59718 v 0.018 c -185.91051,0.025 -363.14023,0.072 -365.14753,0.1934 -76.50002,3.8 -113.70022,12.6994 -153.70022,36.8994 -21.20002,12.799998 -37.99933,27.200898 -53.79935,45.900898 -21.599977,25.8 -40.500381,64.7 -47.900383,99 -4.100001,19 -7.399611,48.5988 -9.099612,81.2988 -1.4,27.9 -1.4,972.20069 0,999.20069 3.900002,74.2 13.000033,111.1005 37.499999,152.5005 23.999996,40.5 59.899526,70.9997 105.499536,89.6997 31.9,13.1 64.7007,18.2993 130.70071,20.7993 9.41205,0.3418 208.85721,0.4037 355.94685,0.5522 v 0.359 h 231.28274 c 39.82913,0.01 71.41088,0.056 111.90538,0.057 9.5061,7e-4 18.694,0 28.0839,0 21.6615,-7e-4 25.1592,-0.054 46.6128,-0.057 h 275.546 v -0.3384 c 132.5826,-0.1393 325.0489,-0.1526 357.8995,-0.438 2.0524,-0.064 4.4036,-0.1056 6.4057,-0.1729 10.2464,-0.3445 19.8455,-0.7412 28.897,-1.2011 9.0515,-0.4598 17.5545,-0.9831 25.6114,-1.5792 8.0568,-0.5961 15.6667,-1.2665 22.929,-2.02 7.2627,-0.7534 14.1781,-1.5908 20.8464,-2.5224 3.2769,-0.458 6.346,-1.0129 9.5155,-1.5176 14.1607,-2.9822 26.4705,-6.8386 38.817,-11.9224 52.9999,-21.6999 92.6999,-59.2007 116.2998,-109.7006 14.9,-32.1 21.2014,-59.0001 25.9014,-111 0.072,-0.8175 0.1041,-29.8877 0.1713,-34.7344 h 1.38 V 532.60571 c -3e-4,-0.3424 4e-4,-0.8152 0,-1.1572 v -247.1133 h -3.567 c -4.6766,-47.5805 -14.1735,-80.7915 -32.4843,-112.8354 -27.3,-48 -73.7013,-84.198898 -128.7012,-100.398898 -19.7001,-5.7 -37.7991,-8.7003 -75.9991,-12.3003 -6.8003,-0.6443 -159.1322,-0.9253 -413.9224,-1.1016 v -0.2095 H 982.80604 c -72.40367,-0.014 -145.29288,-0.027 -210.0806,-0.028 z" />
  <path
     fill="#000000"
     d="m 1141.0657,336.86467 c -8.931,0.084 -16.2498,3.4359 -24.5295,10.6299 -3.9946,3.4707 -5.9347,5.8329 -8.1184,5.1396 -13.9572,-3.528 -27.0156,-7.4613 -49.5855,0.174 -1.0668,5.3217 0.075,12.2812 3.6216,18.0478 3.0693,4.9926 3.1707,8.1654 3.2121,15.1272 0.039,6.7455 2.6082,15.2739 7.1547,26.9076 1.9563,5.9298 5.4033,11.9161 6.0114,18.0433 -2.3169,2.3172 -20.349,5.7195 -41.1432,7.9641 l -21.4933,2.2782 c -12.3147,-1.6767 -25.58495,-7.3278 -36.62345,-12.2859 -9.5166,-4.3194 -14.5503,-9.025 -20.0886,-17.2675 -3.5634,-5.304 -5.4153,-7.9944 -5.7219,-11.1561 -1.0692,-9.0708 5.4438,-17.0349 10.4127,-24.1221 -11.265,0.387 -19.6669,15.8574 -21.9205,23.6565 -4.3245,16.059 1.4001,31.4707 15.886,42.8692 12.7791,9.5748 24.2376,13.4907 38.3721,14.1345 25.18595,1.2132 39.62895,-1.5207 96.83745,-18.4563 10.5714,-3.1293 22.6396,-6.9858 28.1182,-7.551 4.4931,-0.5103 12.2703,0.8307 15.3441,2.1408 -12.3963,21.8211 -44.0323,31.1628 -57.9754,15.2202 -4.5882,12.6255 -11.2887,28.053 -13.9938,42.7834 9.0528,-0.9384 20.2809,-1.7913 25.6476,3.9159 -4.5468,4.3179 -14.3466,2.8374 -18.2262,2.9469 -12.3645,0.3309 -17.7003,-0.5436 -30.8385,-5.0814 -8.7372,-3.018 -20.0917,-7.7001 -25.2316,-10.3962 -5.8242,-3.0549 -13.5798,-7.7275 -20.49125,-12.1891 -21.2535,-15.6918 -25.7154,-17.0925 -49.0117,-17.1306 -18.3174,-0.213 -24.3831,0.474 -35.6265,4.0299 -4.1212,1.9797 -12.3265,1.9932 -16.3369,8.9445 3.1548,-0.081 7.3188,-0.9309 14.0005,-2.3445 9.0114,-1.9062 14.8017,-2.1249 22.4277,-0.7593 17.53,3.1392 25.6549,8.6682 42.4621,29.0269 8.4372,10.221 16.2558,19.4511 17.1888,22.68 -7.1481,1.3845 -8.9742,1.9932 -20.7516,-2.1219 -16.3005,-5.6961 -27.0403,-12.3105 -42.7519,-26.3991 -7.3785,-6.6162 -11.826,-11.1973 -16.5291,-12.0316 -6.7393,0.9126 -9.4219,10.2682 -15.3859,11.6311 -3.4083,0 -33.3831,-25.8076 -33.3831,-28.7437 7.0125,-21.8088 24.3225,-44.296 29.133,-60.145 0.8682,-3.6738 -4.7508,-12.1722 -8.4897,-14.4726 -0.273,-10.2849 -5.6466,-18.1839 -15.63,-16.7529 0.975,4.527 1.7151,9.8295 -2.6103,12.0114 -2.2404,1.5129 -5.5302,1.4901 -9.4692,-0.6567 -7.9035,-4.308 -16.5324,-2.943 -20.442,0.291 -6.0129,4.9752 -9.7986,16.9668 -9.8703,31.4211 -0.081,16.3117 -1.5414,21.2032 -6.8922,18.3394 -2.4969,-1.3362 -4.6968,-7.4542 -6.9501,-16.8211 -4.0881,-16.9926 -7.738,-23.0646 -20.7339,-34.1685 -9.1465,-7.8138 -16.6996,-11.5623 -23.0131,-11.3889 -4.2489,0.4572 -6.7716,2.1381 -11.5062,5.5485 3.6189,2.7714 8.2008,3.7263 10.9221,7.0086 0.234,2.4306 0.5337,5.7861 -0.8178,9.9873 -0.7095,2.2053 -4.1238,4.3356 -6.0744,6.9504 -8.5323,11.4381 -13.4331,20.5062 -13.4331,24.939 0,7.7176 8.1969,18.6736 21.7851,26.2822 24.7209,13.8423 23.992,17.6118 -6.6582,17.697 -18.4662,0.051 -19.8291,1.5516 -24.1218,6.5415 -4.164,4.8405 -5.1273,12.0577 -3.3876,17.7556 2.8389,6.4413 0.7104,9.7152 6e-4,13.3188 -0.9183,4.6608 -7.0611,5.1621 -11.1996,7.7133 5.2389,8.6085 17.643,12.4476 30.7773,7.4565 8.3412,0.9318 16.5984,1.4901 19.3776,1.4733 2.7795,-0.03 8.439,-1.7541 12.5575,-3.8547 14.3591,-7.3257 23.5956,-4.0338 23.5956,8.9361 -4.7475,19.4335 -20.0979,33.433 -34.6927,40.3585 7.302,9.1788 28.4805,-2.0679 36.6211,-7.5342 13.2426,-9.0663 16.4195,-9.756 23.2446,-5.0229 8.2932,5.7504 51.7974,47.1892 54.9024,53.7322 -2.0811,0.6969 -5.3118,1.2921 -10.8636,1.9857 -8.4945,1.0614 -14.0469,0.126 -35.0436,-5.8989 -21.0372,-6.0369 -27.666,-8.0487 -42.6355,-8.0601 -14.5034,0 -18.8406,1.5609 -23.4201,4.5558 -3.084,2.0166 -6.0276,4.1388 -6.5415,4.7307 -0.5139,0.5922 -3.8781,3.3093 -7.4757,6.0159 -6.75,5.0778 -12.3603,14.3982 -12.4407,19.4493 4.3464,-1.5231 7.4952,-4.8165 10.5132,-7.476 11.6394,-10.887 15.6081,-12.4404 32.65,-12.4404 13.3293,0 14.3709,0.3951 42.4035,14.5431 31.5246,15.9114 44.5161,19.7085 78.0883,23.0691 10.9002,1.0917 14.925,1.9782 22.0776,2.862 -1.395,5.7016 -27.3486,22.9027 -43.0447,27.6841 -6.4566,1.9665 -22.9254,4.6281 -33.876,3.0369 -4.0741,-0.171 -18.6858,-1.1127 -27.216,-0.4671 11.3753,9.6243 16.635,9.7146 24.0051,12.0894 5.6664,1.6668 11.7774,3.1941 17.5803,4.3806 8.9946,1.8393 12.2718,2.3442 17.4048,4.731 -5.1447,8.5915 -20.4828,11.0074 -28.5615,16.237 -13.1166,5.4117 -24.0369,10.4715 -31.6552,11.1555 -10.1138,0.9075 -15.4376,0.249 -20.2085,-3.8547 -4.4157,-3.7986 -4.9951,-6.8787 -7.1256,-17.4637 -3.226,-16.0281 -3.3363,-18.1605 0.7593,-30.0777 2.8263,-8.2242 1.9134,-10.2273 -0.876,-14.4846 -1.7484,-2.6685 -4.7785,-4.8474 -6.7749,-4.8474 -1.9965,0 -6.4356,-2.3739 -9.8124,-5.3151 -5.4937,-4.7857 -10.6285,-8.0299 -15.1855,-9.637 -5.0817,-1.7487 -12.8709,-2.0052 -16.3536,6.1326 3.5112,2.0455 9.6663,4.4473 11.5644,11.389 -0.9906,1.0485 -3.8004,2.9091 -6.4833,4.0302 -3.4746,1.4517 -8.5209,5.2686 -11.214,8.4687 -9.3384,11.0979 -5.022,25.9758 13.083,45.0898 5.5269,5.8341 7.7901,7.1796 11.3889,13.6083 -4.2771,1.6464 -14.9142,1.779 -17.4048,0.7011 -0.7983,-0.6198 -1.2024,-1.0758 -4.2054,-1.4601 -7.3227,-0.7926 -22.2735,1.1277 -22.6617,12.5571 5.7018,1.4922 7.7661,1.9827 11.5644,4.3221 4.092,2.4048 2.0142,8.2362 -2.2779,16.6458 -4.9929,9.7831 -4.7163,13.8205 1.4019,20.5588 5.4429,5.9943 20.9598,11.214 33.2907,11.214 2.1351,0.114 5.9688,0.108 7.8264,1.8105 -1.6647,1.23 -2.3388,1.9701 -4.9644,2.8035 -7.1085,2.256 -13.2582,8.6469 -13.2582,13.7838 0,1.4712 0.3729,3.4857 -0.057,5.7237 -2.1696,0.8388 -7.1616,6.2608 -11.3892,12.9079 -8.3457,1.9131 -6.0054,19.7367 -1.869,19.8582 2.7615,-4.6377 12.5232,-9.9366 16.938,-9.9291 3.8466,-1.2729 16.0977,6.1068 28.0935,7.1256 7.428,0.132 13.8789,-2.8185 21.5518,-7.8849 11.3547,-7.4979 19.14,-19.9356 21.9606,-35.1025 1.9482,-10.4754 2.7671,-11.8251 8.2937,-14.1342 3.7851,-1.5816 13.219,-2.5698 24.8806,-2.5698 15.3357,0 11.9598,-0.198 20.3838,2.6865 0.3939,11.9577 -18.5544,26.2689 -26.4579,32.1235 -2.8956,1.4025 -3.8154,2.3301 -8.0016,7.0086 5.256,5.8995 11.0622,6.2493 17.2296,5.3151 11.8818,-2.1744 27.846,-10.7343 39.0733,-21.961 13.3233,-13.7472 23.0916,-31.9047 27.2163,-52.3327 16.1077,-2.5257 34.0291,-11.9592 43.2199,-11.097 2.997,42.7411 46.83815,71.8202 72.59865,55.5436 -42.5404,-0.3096 -48.9217,-27.9495 -25.9315,-64.4806 4.4551,-6.48 11.1601,-6.7284 15.1861,-0.5841 5.0982,7.7817 21.3705,23.146 32.5323,30.6631 20.5266,13.8258 34.9377,20.2212 75.1681,33.3495 4.6254,1.5096 12.915,4.7676 18.3981,7.3008 6.6477,3.072 15.0717,8.4415 22.4274,13.8424 3.4146,2.5263 17.3362,11.9133 17.6968,19.449 -4.5744,-0.201 -8.3634,-2.3826 -17.9884,-9.1113 -21.5019,-15.0309 -49.9932,-26.7367 -76.9794,-31.6552 -5.9884,-1.0848 -26.3545,-6.2811 -37.0285,-3.0957 4.3659,3.7413 18.4596,9.744 24.8808,11.6811 16.3699,4.9389 52.4359,23.1415 56.7109,28.2106 3.342,3.9624 3.3546,4.1163 -0.117,5.6652 -2.3241,1.0374 -11.0316,-0.12 -24.9387,-3.3291 -59.0719,-13.6314 -114.1112,-16.497 -179.30695,-9.3447 -35.2285,3.8646 -60.4577,10.1547 -81.3017,20.2668 -30.0825,14.5953 -54.4275,36.889 -58.9905,54.0835 -2.6103,9.8373 -7.8933,15.7278 -18.2226,20.2083 -12.6036,5.467 -24.1651,3.9999 -33.1156,-1.4019 -8.6616,-5.7879 -11.4908,-20.5686 -11.6229,-28.0935 -10.371,7.9389 -7.8984,21.1338 -4.9062,32.2989 5.0922,12.2131 10.2312,17.7997 20.8512,22.6621 8.6181,3.9456 11.8362,4.4916 20.734,3.4458 12.4674,-1.5855 23.8275,-5.8251 30.78,-10.6884 17.8455,11.3925 42.7431,47.6146 55.4265,66.75753 1.5894,3.6597 -34.821,21.8697 -40.5924,21.318 -5.7252,-0.5472 -10.1409,-8.7111 -9.6369,-20.8509 0.5775,-13.9062 -5.9296,-22.80593 -10.9218,-24.93903 -1.8372,-0.7848 -10.7685,-3.2628 -19.566,-3.2124 -5.9382,-3.8115 -30.8905,-7.2684 -32.3575,14.13453 5.2056,-2.19533 11.2875,-1.82453 16.4122,0.3504 1.3499,2.6499 -0.189,9.1821 -2.2195,11.2722 -0.948,0.9765 -2.2959,4.8084 -2.979,8.5272 -1.2117,6.6003 -0.9678,6.9345 9.6373,14.0175 11.2014,7.4817 19.3322,17.3545 19.3322,23.4205 0,3.3474 -3.1956,4.365 -6.7751,2.745 -2.7537,-1.2465 -5.1462,-4.3083 -9.8706,-7.593 -4.3363,-3.0147 -8.8873,-8.4829 -14.7766,-8.7025 -3.4089,0.03 -6.5373,2.4204 -11.9733,2.5113 -6.2904,0.117 -24.9387,-5.0625 -25.2312,9.754 4.584,0.6927 9.4041,5.7399 9.4035,8.352 0,6.6381 3.1767,9.3027 2.9202,17.3466 -0.156,4.9098 3.0354,10.6518 5.0226,12.8493 9.5751,10.5871 28.7124,14.0986 43.8054,8.0598 5.6316,-2.253 10.0281,-3.0243 13.4335,-2.2779 0.678,5.7136 -7.0551,8.263 -10.2796,10.8637 -11.2124,6.3282 -15.6384,11.055 -15.419,28.3275 0.051,4.0689 -1.1278,5.4948 -4.8478,9.228 -5.5848,5.604 -10.9455,16.837 -4.7892,24.8803 6.5331,-6.8124 15.9448,-18.82 32.8816,-11.8563 10.2195,3.7878 18.8352,1.9845 27.8595,-8.2936 7.3911,-8.4177 12.0038,-16.5924 15.3021,-33.8757 4.1361,-19.5295 12.693,-19.267 33.4665,-20.0917 l 1.2849,6.892 c 4.0353,21.5103 -6.633,36.2229 -49.878,68.8612 -7.8628,5.9337 -17.6157,14.3502 -21.6102,18.6897 -7.4979,8.1459 -15.5704,21.6411 -17.4048,36.5626 16.9128,-23.1391 28.7439,-33.5632 64.4805,-45.6142 20.7702,-6.7419 35.0349,-14.6892 39.3075,-21.9021 4.3479,-7.3411 6.7323,-25.5688 4.4388,-33.8758 -0.9288,-3.3636 -5.2581,-28.8946 -7.359,-35.6851 4.4454,-6.0867 8.2449,-8.7894 28.0348,-18.0477 33.0301,-16.857 39.436,-26.3271 36.0949,-53.5006 -0.8526,-6.9312 -1.0194,-13.3353 -0.234,-15.4773 29.1036,6.6072 31.7943,32.8791 17.58,46.1992 15.2253,6.0741 29.62775,-31.2031 8.7606,-50.7556 -3.855,-4.45133 -8.9253,-9.67463 -15.5358,-16.11993 -12.261,-11.9541 -22.4778,-18.5997 -22.3113,-24.822 0.201,-7.4541 10.5072,-20.1828 23.0694,-27.9766 4.7151,-2.925 32.21315,-12.7035 82.52805,-29.3196 34.1706,-11.2845 76.2526,-22.7589 88.8343,-23.9469 19.6818,-1.8573 24.741,0.6798 19.8579,14.0757 -1.8312,5.0244 2.9142,9.9873 9.3453,9.9873 2.7876,0 5.5779,1.0212 5.1393,2.3364 -0.7725,2.3181 -21.8589,10.4499 -36.27,14.4261 -4.6257,1.2765 -10.3128,3.1092 -12.6735,4.0302 -8.0265,3.1302 -25.6366,1.6539 -48.0691,-3.9717 -17.1153,-4.2921 -24.5547,-5.2938 -31.7142,-4.3806 -19.3492,2.4675 -44.3944,15.0357 -52.79835,26.5162 -3.4017,4.6473 -5.907,10.7856 -6.9501,16.4706 -0.9939,5.6172 -1.566,16.1949 6.5415,18.2811 -0.9948,-10.7058 1.6995,-23.1705 17.63825,-32.5914 3.1785,-1.6578 11.883,-3.9882 19.7413,-3.738 11.9349,0.3798 15.1572,0.3978 22.3113,4.0887 4.6254,2.3862 9.7053,5.8701 10.0455,7.7094 0.3957,2.1393 -5.0736,9.5748 -15.2436,18.69 -16.8522,15.1041 -30.1816,38.77203 -31.6555,49.76103 -1.1889,8.8644 2.6157,33.5071 5.9574,38.6056 2.1516,3.2835 5.1291,4.0986 18.1645,5.0229 8.5605,0.6069 24.3672,2.8629 35.1603,5.0229 18.8109,3.7641 20.4768,3.8625 40.1833,1.1097 52.6182,-7.3503 106.6609,-14.1342 112.9564,-14.1342 9.9573,0 25.1214,4.944 29.2614,9.5202 5.0373,5.5662 6.2604,29.601 1.752,34.11 -5.9829,5.9833 -17.2938,3.1101 -33.8175,-8.5275 -18.2841,-12.8775 -35.7637,-15.9795 -50.3461,-8.9361 -2.1222,1.0254 -3.9756,2.8917 -6.5997,3.5628 -9.9528,-0.6828 -29.7543,2.6037 -28.4445,16.4703 6.4683,-2.2428 16.7712,-0.6876 21.318,1.6939 2.1252,0.9117 2.2998,3.7488 4.2051,6.4248 2.5743,3.6144 2.3934,8.7051 3.2124,15.6528 1.074,9.108 2.3355,12.1518 6.5415,15.7695 7.8363,6.6558 22.4731,2.7612 33.4669,1.2264 0.159,4.8672 -5.6055,6.5184 -16.0036,10.6296 -9.9468,3.8241 -22.8396,7.5931 -24.4125,25.3486 -4.6305,4.4142 -16.0032,17.4636 -4.5552,25.173 1.6854,-3.9546 8.3745,-9.8784 13.725,-10.221 2.8455,1.7265 5.6952,1.1196 9.4035,3.0372 5.1405,2.658 14.9263,3.9279 25.99,3.3291 7.6797,-0.4158 15.9726,-7.7925 22.545,-19.9749 3.4572,-6.4089 6.2022,-10.6299 8.7606,-10.6299 3.3096,0 6.156,2.8707 3.1542,10.6299 -3.054,7.893 0.072,10.1472 6.1911,17.2881 4.4901,5.2365 9.2568,8.6205 14.1342,9.8706 2.8791,0.7377 3.7749,1.4955 7.0671,1.752 4.5331,4.7376 5.9155,14.2879 3.0366,22.7206 11.0794,1.8696 24.3364,-11.1042 18.34,-29.2612 -0.243,-4.1328 2.0133,-3.8727 4.0296,-6.9504 2.9172,-4.4514 3.801,-8.4273 2.6871,-28.9686 l -1.2849,-23.8297 7.5927,-0.5841 c 13.9482,-1.1538 25.0197,9.4104 30.3699,28.9687 3.4989,12.7875 -10.1181,50.6161 -24.8799,69.1516 -13.2213,16.6023 -20.0109,31.5561 -19.5075,42.8107 0.3123,6.1242 0.168,13.9503 6.0159,19.9749 -0.117,-10.4223 -0.3429,-15.1293 2.745,-22.0773 2.8248,-7.1719 8.2347,-13.6765 19.3908,-24.8221 10.5345,-10.5255 17.0685,-19.2189 24.4122,-32.5914 9.3144,-16.9576 10.0776,-19.3483 10.9797,-33.8176 0.6222,-9.972 0.102,-18.2112 -1.4013,-22.896 -4.5246,-14.0968 -13.5996,-34.7194 -23.7123,-42.4618 -9.483,-7.2579 -8.4105,-9.279 -7.1838,-17.7555 4.4931,-22.0837 4.7844,-25.5082 4.7892,-37.5547 0.03,-4.8432 0.7497,-14.937 1.3434,-17.6388 3.6495,-0.6072 5.6259,-0.081 9.111,1.5771 1.3287,5.7192 1.9533,14.6034 -2.9781,21.0261 -3.8016,5.0229 -4.2732,7.8687 -2.9205,13.0827 3.6564,9.9792 5.8524,16.1457 18.3975,13.5501 -10.0308,-17.712 -5.5566,-22.2747 0.4089,-33.1155 14.9536,-28.5616 10.4086,-45.3016 -13.6086,-58.3471 -6.5931,-3.5817 -9.0006,-6.1695 -9.8703,-10.3962 -1.4877,-7.23053 -6.7365,-17.50593 -11.7981,-23.06943 -9.7164,-10.6821 -22.2498,-12.6054 -54.0835,-8.2935 -15.8682,2.1492 -20.4834,3.2607 -27.0426,0.5256 7.4499,-10.0008 32.6049,-29.2614 41.6431,-29.9049 2.1054,0 8.6355,1.6821 14.4846,3.738 24.894,8.7495 39.1569,3.642 52.7982,-18.9235 14.1657,-23.4315 17.5522,-33.318 17.4634,-66.1162 -0.072,-26.667 -4.9276,-57.49 -16.4122,-121.4846 -2.9664,-16.5306 -0.4377,-44.3812 9.8706,-108.4004 0.834,-5.1783 3.0336,-32.9871 6.6583,-84.1051 0.8019,-11.3074 1.5891,-37.8004 1.7523,-58.8736 0.4473,-57.8269 -5.5849,-84.431 -23.1871,-102.035 -10.2843,-10.2846 -18.6264,-12.9753 -30.8376,-10.0458 -12.2715,2.9439 -16.9833,9.4053 -17.8722,24.471 -0.6735,11.4228 1.0014,17.7006 9.9288,36.5626 7.6665,16.1958 7.3698,29.5986 1.3437,35.8602 -3.627,3.4671 -7.6521,3.3762 -8.8194,9.1114 7.9392,6.9978 14.2152,-1.0302 17.1126,-4.4974 2.274,-2.7588 4.0782,-5.7399 5.4906,-9.111 3.4764,-8.2986 4.4685,-18.9702 3.4458,-34.5759 -1.362,-20.7838 0.042,-23.6812 10.3962,-21.61 10.2849,2.0571 13.971,5.8548 18.3393,18.982 4.7634,14.3145 4.5969,17.5704 -2.8035,55.9528 -2.7747,14.3907 -5.6265,30.3702 -6.3078,35.5113 -1.1241,8.4798 -1.6968,9.4449 -6.4245,9.9876 -12.1086,-0.183 -21.5031,-12.4299 -32.7666,-18.9237 -0.423,7.5477 9.7785,23.1957 14.5425,32.1823 6.129,11.6343 10.5108,26.2011 13.0833,43.3371 1.6791,11.1841 -1.7172,52.2745 -5.2563,63.6032 -7.3092,23.3979 -12.7434,38.0832 -18.9234,51.1041 -13.8222,29.1217 -18.24,52.6321 -12.8493,68.4518 3.3951,9.963 12.4878,22.6035 20.6169,28.7346 22.7544,17.1612 29.6955,26.5996 33.1155,44.9146 2.9397,15.7365 -3.849,45.0046 -13.1994,56.8285 -6.0957,5.4012 -11.7375,14.5677 -36.738,13.0245 -0.4341,-5.1984 -0.3318,-7.0272 -0.3504,-16.3536 -0.042,-20.9185 -3.0264,-49.0435 -6.3663,-59.9245 -5.7714,-18.802 -31.5316,-62.3878 -50.8726,-86.1479 -13.0407,-16.0215 -22.4784,-28.458 -28.9101,-38.1984 -5.3049,-7.9927 -11.7987,-19.6663 -11.214,-29.2027 4.6875,-0.141 5.2878,0.5595 11.7981,4.3218 11.5185,6.6573 39.4515,6.9294 52.4475,-0.174 11.295,-6.1737 20.9074,-13.719 26.8672,-23.8878 3.5184,-7.4811 9.6792,-17.2645 8.6442,-26.575 -3.3618,4.7559 -4.5156,6.7011 -8.0601,12.9079 -9.5814,16.7787 -26.7325,26.7684 -40.0657,23.4204 -6.9717,-1.7499 -17.0358,-11.4321 -20.2671,-19.5075 -1.5738,-3.9336 -3.9129,-12.2347 -5.1981,-18.4564 -2.0295,-9.8256 -1.9059,-12.9267 0.9345,-23.4204 3.0141,-11.1339 10.3707,-22.1644 15.4776,-25.1146 7.7619,6.6025 21.0876,13.8307 30.7215,16.8211 18.5788,3.4278 36.0565,-8.5608 37.789,-23.1862 -10.3977,3.2385 -24.1605,2.5737 -32.3574,-4.9644 -10.6456,-11.0994 -8.2576,-16.4301 -0.7593,-52.5064 5.8587,-28.188 6.8253,-36.3846 6.7167,-56.362 -0.168,-30.8364 -6.228,-59.002 -18.5146,-81.5941 -1.6311,-2.9991 -2.4741,-4.7274 -2.1024,-7.359 2.217,-11.9811 11.4612,-26.4805 9.4614,-38.9566 -17.5017,3.1917 -34.6386,4.2732 -51.6891,4.7307 -26.4867,0.6711 -56.5786,-1.1391 -71.2555,-4.8477 -4.5462,-0.9474 -9.2976,-1.8801 -13.3746,-1.8687 z m -2.628,23.1279 c 1.1517,-0.066 4.2267,0.4269 6.8337,0.8175 16.7238,2.5071 19.6116,8.8549 7.4172,13.5502 -3.6054,1.3884 -7.7445,2.6868 -9.3447,2.6868 -4.2714,0 -6.6,-7.0695 -6.6,-13.4334 0,-2.1691 -0.225,-3.5104 1.6935,-3.6211 z m -10.8051,53.9662 c 1.6893,0 3.2121,0.03 4.4382,0.06 4.908,0.12 9.2292,1.32 11.5647,2.5701 7.0827,3.7905 2.1345,4.3438 -11.1387,6.3328 -34.6996,5.1999 -37.8001,4.962 -38.9746,1.9023 -2.4102,-6.2803 -0.171,-8.4862 14.6016,-9.8704 7.5493,-0.7077 14.4391,-0.9636 19.5076,-0.993 z"
     id="path1237"
     style="stroke-width:2.25001" />
  <path
     id="path1548"
     style="fill:#fff200;fill-opacity:1;stroke:none;stroke-width:0.0999997"
     d="m 157.43051,1704.6198 c -30.49587,-6e-4 -24.20783,0.026 -52.48098,0.028 H 72.352352 v 0.018 c -185.910512,0.025 -363.140232,0.072 -365.147532,0.1934 -76.50002,3.8 -113.70022,12.6994 -153.70022,36.8994 -21.20002,12.8 -37.99933,27.2009 -53.79935,45.9009 -21.59997,25.8 -40.50038,64.7 -47.90038,99 -4.1,19 -7.39961,48.5988 -9.09961,81.2988 -1.4,27.9 -1.4,972.2007 0,999.2007 3.9,74.2 13.00003,111.1005 37.5,152.5005 23.99999,40.5 59.89952,70.9997 105.49953,89.6997 31.9,13.1 64.7007,18.2993 130.70071,20.7993 9.41205,0.3418 208.857212,0.4037 355.946852,0.5522 v 0.359 H 303.63509 c 39.82913,0.01 71.41088,0.056 111.90538,0.057 9.5061,7e-4 18.694,0 28.0839,0 21.6615,-7e-4 25.1592,-0.054 46.6128,-0.057 h 275.546 v -0.3384 c 132.5826,-0.1393 325.04893,-0.1526 357.89953,-0.438 2.0524,-0.064 4.4036,-0.1056 6.4057,-0.1729 10.2464,-0.3445 19.8455,-0.7412 28.897,-1.2011 9.0515,-0.4598 17.5545,-0.9831 25.6114,-1.5792 8.0568,-0.5961 15.6667,-1.2665 22.929,-2.02 7.2627,-0.7534 14.1781,-1.5908 20.8464,-2.5224 3.2769,-0.458 6.346,-1.0129 9.5155,-1.5176 14.1607,-2.9822 26.4705,-6.8386 38.817,-11.9224 52.9999,-21.6999 92.6999,-59.2007 116.2998,-109.7006 14.9,-32.1 21.2014,-59.0001 25.9014,-111 0.072,-0.8175 0.1041,-29.8877 0.1713,-34.7344 h 1.38 v -774.1583 c -3e-4,-0.3424 4e-4,-0.8152 0,-1.1572 v -247.1133 h -3.567 c -4.6766,-47.5805 -14.1735,-80.7915 -32.4843,-112.8354 -27.3,-48 -73.7013,-84.1989 -128.7012,-100.3989 -19.7001,-5.7 -37.7991,-8.7003 -75.9991,-12.3003 -6.8003,-0.6443 -159.1322,-0.9253 -413.92243,-1.1016 v -0.2095 H 367.51111 c -72.40367,-0.014 -145.29288,-0.027 -210.0806,-0.028 z" />
</svg>
