<?xml version="1.0" encoding="UTF-8" standalone="no"?>
<svg
   xmlns:dc="http://purl.org/dc/elements/1.1/"
   xmlns:cc="http://creativecommons.org/ns#"
   xmlns:rdf="http://www.w3.org/1999/02/22-rdf-syntax-ns#"
   xmlns:svg="http://www.w3.org/2000/svg"
   xmlns="http://www.w3.org/2000/svg"
   xmlns:sodipodi="http://sodipodi.sourceforge.net/DTD/sodipodi-0.dtd"
   xmlns:inkscape="http://www.inkscape.org/namespaces/inkscape"
   version="1.0"
   width="2096.000000pt"
   height="1648.000000pt"
   viewBox="0 0 2096.000000 1648.000000"
   preserveAspectRatio="xMidYMid meet"
   id="svg10"
   sodipodi:docname="manx-gaelic.svg"
   inkscape:version="0.92.5 (2060ec1f9f, 2020-04-08)">
  <defs
     id="defs14" />
  <sodipodi:namedview
     pagecolor="#ffffff"
     bordercolor="#666666"
     borderopacity="1"
     objecttolerance="10"
     gridtolerance="10"
     guidetolerance="10"
     inkscape:pageopacity="0"
     inkscape:pageshadow="2"
     inkscape:window-width="1326"
     inkscape:window-height="717"
     id="namedview12"
     showgrid="false"
     inkscape:zoom="0.1767767"
     inkscape:cx="1513.9597"
     inkscape:cy="1088.954"
     inkscape:window-x="40"
     inkscape:window-y="24"
     inkscape:window-maximized="1"
     inkscape:current-layer="svg10"
     showguides="true"
     inkscape:snap-bbox="true"
     inkscape:bbox-paths="true"
     inkscape:bbox-nodes="true"
     inkscape:snap-bbox-edge-midpoints="true"
     inkscape:snap-bbox-midpoints="true"
     inkscape:object-paths="true"
     inkscape:snap-intersection-paths="true"
     inkscape:snap-smooth-nodes="false"
     inkscape:snap-midpoints="false"
     inkscape:snap-others="false"
     inkscape:object-nodes="true" />
  <metadata
     id="metadata2">
Created by potrace 1.16, written by Peter Selinger 2001-2019
<rdf:RDF>
  <cc:Work
     rdf:about="">
    <dc:format>image/svg+xml</dc:format>
    <dc:type
       rdf:resource="http://purl.org/dc/dcmitype/StillImage" />
  </cc:Work>
</rdf:RDF>
</metadata>
  <path
     style="opacity:1;fill:#ffffff;fill-opacity:0.98823529;fill-rule:evenodd;stroke:#f9dd16;stroke-width:0.59625;stroke-miterlimit:4;stroke-dasharray:none;stroke-opacity:0.98823529;paint-order:stroke fill markers"
     d="m 942.42024,280.25205 c -2.1609,-0.002 -4.3313,0.0973 -6.5097,0.27539 -2.9046,0.23743 -5.8231,0.61621 -8.7539,1.08399 -5.8617,0.93553 -11.7708,2.22793 -17.7042,3.46582 -1.9756,0.41218 -4.6438,1.29477 -7.9292,2.57519 -3.2852,1.28042 -7.1872,2.95904 -11.6338,4.95996 -8.8929,4.00184 -19.9599,9.29696 -32.6059,15.29443 -12.6461,5.99748 -26.8717,12.69752 -42.0821,19.50879 -7.6051,3.40564 -15.4566,6.83859 -23.4799,10.22608 -8.0234,3.38749 -16.2197,6.72907 -24.5127,9.95068 -8.293,3.22162 -16.6832,6.32344 -25.0972,9.23145 -8.4139,2.90801 -16.8514,5.62168 -25.2378,8.06836 -4.1932,1.22334 -8.3733,2.37965 -12.5317,3.45996 -4.1584,1.0803 -8.2948,2.08558 -12.3999,3.00439 -4.1051,0.91881 -8.1792,1.75139 -12.2124,2.49023 -4.0332,0.73885 -8.0251,1.38294 -11.9678,1.92335 -3.9427,0.54041 -7.8367,0.97726 -11.6704,1.30078 -3.8337,0.32351 -7.6069,0.53441 -11.313,0.62256 -3.706,0.0881 -7.3444,0.0543 -10.9043,-0.11133 -3.5598,-0.16568 -7.0419,-0.4629 -10.437,-0.90088 -3.3951,-0.43798 -6.7023,-1.01735 -9.9141,-1.74609 -3.2117,-0.72875 -6.3271,-1.60754 -9.3369,-2.64551 -3.0098,-1.03797 -5.9148,-2.23493 -8.7041,-3.60059 -2.7893,-1.36566 -5.4639,-2.8995 -8.0141,-4.61133 -1.0838,-0.72727 -2.2912,-1.52445 -3.6021,-2.47705 -1.3109,-0.95259 -2.7239,-2.06121 -4.2173,-3.41016 -1.4933,-1.34894 -3.068,-2.93817 -4.6992,-4.85448 -1.6311,-1.91633 -3.3192,-4.15973 -5.0434,-6.81446 -1.1278,-1.73658 -2.6043,-3.48736 -4.4136,-5.36425 -1.8093,-1.87689 -3.9518,-3.87981 -6.4116,-6.12306 -2.4599,-2.24324 -5.2379,-4.72587 -8.3174,-7.56152 -3.0796,-2.83564 -6.4611,-6.02413 -10.1294,-9.67822 -3.2217,-3.20919 -6.6925,-6.83649 -10.251,-10.36524 -1.7792,-1.76436 -3.5807,-3.50406 -5.3833,-5.15478 -1.8025,-1.65072 -3.6054,-3.21207 -5.3906,-4.62012 -1.7853,-1.40804 -3.5519,-2.66238 -5.2793,-3.69873 -1.7274,-1.03634 -3.4161,-1.85501 -5.0449,-2.39062 -0.8145,-0.2678 -1.6143,-0.46458 -2.3965,-0.58301 -0.7822,-0.11843 -1.5476,-0.1584 -2.2925,-0.11133 -0.7449,0.0471 -1.4699,0.18146 -2.1724,0.41016 -0.7025,0.2287 -1.3825,0.55206 -2.0376,0.97851 -0.8103,0.52759 -1.704,1.19481 -2.6411,1.97754 -0.937,0.78273 -1.9174,1.68074 -2.896,2.67042 -0.9785,0.98967 -1.9566,2.07129 -2.8916,3.21972 -0.935,1.14843 -1.826,2.36357 -2.6323,3.62256 -0.8063,1.25898 -1.5271,2.56048 -2.1196,3.88184 -0.5925,1.32134 -1.057,2.66203 -1.3506,3.99755 -0.2936,1.33553 -0.4157,2.66675 -0.3252,3.96827 0.091,1.3015 0.394,2.57318 0.9536,3.79248 1.3799,3.00643 2.6726,5.98495 3.98,8.9165 1.3074,2.93155 2.6292,5.81671 4.0693,8.63965 9.0824,17.80388 17.4637,34.60959 24.9961,50.10937 7.5324,15.49979 14.2154,29.69414 19.9014,42.27393 2.843,6.2899 5.4378,12.17618 7.7637,17.62061 2.3258,5.44442 4.3837,10.44581 6.1552,14.96777 1.7716,4.52196 3.2568,8.56391 4.437,12.08642 1.1803,3.52252 2.0556,6.5261 2.6075,8.97217 0.526,2.33135 1.1615,4.46508 1.8823,6.41602 0.7208,1.95093 1.5266,3.71898 2.3935,5.31885 0.867,1.59986 1.7952,3.03144 2.7598,4.30956 0.9647,1.27814 1.9658,2.40245 2.9795,3.38819 1.0137,0.98574 2.0399,1.83347 3.0542,2.55615 1.0143,0.72268 2.0162,1.32158 2.9824,1.81055 0.9663,0.48896 1.896,0.86825 2.7656,1.15283 0.8697,0.28458 1.6794,0.47346 2.4039,0.58301 3.2096,0.4853 6.2983,0.71039 9.2753,0.70605 2.9771,-0.004 5.8429,-0.23755 8.6045,-0.66943 2.7617,-0.43188 5.42,-1.06156 7.9834,-1.85889 2.5635,-0.79732 5.0313,-1.76309 7.4136,-2.86377 2.3823,-1.10068 4.6781,-2.3363 6.8965,-3.67822 2.2184,-1.34193 4.3591,-2.78995 6.4307,-4.31103 2.0715,-1.52109 4.0741,-3.11529 6.0161,-4.75342 1.9419,-1.63814 3.8233,-3.3196 5.6528,-5.0127 3.6589,-3.3862 7.1105,-6.81977 10.4224,-10.05322 3.3118,-3.23345 6.4839,-6.26667 9.5859,-8.85058 1.551,-1.29197 3.0841,-2.47188 4.6084,-3.50831 1.5243,-1.03643 3.0395,-1.92963 4.5542,-2.64844 1.5147,-0.7188 3.029,-1.26345 4.5513,-1.60254 1.5222,-0.33908 3.0526,-0.47334 4.5996,-0.3706 10.2653,0.68176 19.9563,1.24555 29.1138,1.69336 9.1574,0.44781 17.7822,0.77967 25.913,1.00195 8.1309,0.22228 15.7687,0.33469 22.9541,0.33985 7.1855,0.005 13.9185,-0.0967 20.2398,-0.30029 6.3213,-0.20355 12.2302,-0.50877 17.7685,-0.9126 5.5384,-0.40384 10.7054,-0.90576 15.542,-1.50147 4.8366,-0.59571 9.3426,-1.28479 13.5586,-2.06397 4.2161,-0.77917 8.1431,-1.6488 11.8199,-2.60302 3.6768,-0.95423 7.104,-1.9934 10.3227,-3.11426 3.2187,-1.12086 6.2285,-2.32296 9.0703,-3.60205 2.8419,-1.27908 5.5163,-2.63459 8.0625,-4.06348 2.5463,-1.42889 4.9646,-2.93117 7.2964,-4.50146 2.3318,-1.57029 4.5763,-3.20982 6.7749,-4.91309 2.1986,-1.70327 4.3514,-3.4705 6.4981,-5.29833 4.2933,-3.65568 8.564,-7.55232 13.1367,-11.65577 0.4805,-0.4312 1.0386,-0.77027 1.6626,-1.02392 0.6239,-0.25366 1.3139,-0.42123 2.0581,-0.50831 0.7442,-0.0871 1.542,-0.0934 2.3833,-0.0249 0.8413,0.0685 1.7259,0.21162 2.6411,0.4248 1.8304,0.42639 3.7845,1.13062 5.7715,2.06983 1.9869,0.93921 4.0068,2.11319 5.9648,3.47754 1.958,1.36434 3.8549,2.91981 5.5987,4.62158 1.7437,1.70178 3.3332,3.55046 4.6772,5.50196 0.672,0.97575 1.2835,1.9768 1.8208,2.99853 0.5373,1.02174 1.0005,2.06335 1.3799,3.12012 0.3794,1.05676 0.6747,2.12865 0.873,3.20947 0.1984,1.08083 0.3004,2.17122 0.2945,3.26514 -0.054,9.98487 0.01,19.47177 0.1611,28.48242 0.1545,9.01065 0.4033,17.54481 0.7221,25.62305 0.3189,8.07823 0.7082,15.70055 1.147,22.88818 0.4388,7.18763 0.9269,13.94046 1.4414,20.2793 1.029,12.67768 2.1655,23.6995 3.2315,33.2329 1.066,9.53341 2.061,17.57814 2.8096,24.30177 -0.2485,3.7785 -0.5517,7.4679 -0.9361,10.98632 -0.3844,3.51843 -0.8498,6.86653 -1.4238,9.96533 -0.5741,3.09881 -1.2569,5.94719 -2.0742,8.4668 -0.4087,1.25981 -0.8506,2.43786 -1.3301,3.52295 -0.4795,1.08509 -0.9957,2.07734 -1.5528,2.96777 -1.5552,2.48592 -3.4467,5.29218 -5.5297,8.23535 -2.083,2.94318 -4.3578,6.02413 -6.6827,9.06006 -2.3248,3.03594 -4.6989,6.02634 -6.9799,8.79053 -2.2811,2.76419 -4.469,5.30174 -6.4205,7.42969 -4.3906,4.78788 -8.6248,9.52317 -12.7089,14.21045 -4.0841,4.68727 -8.0178,9.32704 -11.811,13.92334 -3.7933,4.5963 -7.4448,9.1491 -10.9629,13.66406 -3.5181,4.51497 -6.903,8.99229 -10.1616,13.43554 -3.2587,4.44327 -6.3923,8.8522 -9.4073,13.23341 -3.015,4.38121 -5.9112,8.73471 -8.6983,13.06345 -2.787,4.32878 -5.4642,8.6325 -8.039,12.91845 -2.5747,4.28603 -5.047,8.55428 -7.4253,12.80715 -2.3782,4.25288 -4.6624,8.49135 -6.8599,12.72068 -2.1974,4.2294 -4.3089,8.44815 -6.3413,12.6636 -2.0323,4.21545 -3.9865,8.42745 -5.8696,12.6387 -1.8831,4.21117 -3.6954,8.42205 -5.4448,12.63862 -3.4989,8.4333 -6.7454,16.88775 -9.8042,25.4004 -3.0588,8.51265 -5.9289,17.08425 -8.6733,25.75343 -0.9861,3.1146 -1.8393,6.135 -2.5679,9.06742 -0.7287,2.93235 -1.3329,5.77628 -1.8193,8.53853 -0.4866,2.76232 -0.8554,5.442 -1.1148,8.04637 -0.2595,2.60445 -0.4095,5.1336 -0.457,7.59233 -0.047,2.45872 0.01,4.84807 0.1567,7.1733 0.1494,2.3253 0.3926,4.58707 0.7236,6.79102 0.3311,2.20395 0.7504,4.34903 1.2481,6.44385 0.4976,2.09483 1.0735,4.13835 1.7226,6.13628 0.6492,1.99785 1.3708,3.95055 2.1563,5.86372 0.7855,1.91318 1.6362,3.78728 2.543,5.62793 1.8134,3.6813 3.8539,7.2291 6.0615,10.69335 2.2076,3.46432 4.5811,6.84465 7.062,10.1895 2.4809,3.34477 5.0689,6.65415 7.7021,9.97702 1.3152,1.65968 3.3542,3.7386 6.0206,6.20363 2.6663,2.46502 5.9601,5.31592 9.7851,8.51955 7.65,6.40726 17.4248,14.22506 28.5542,23.18556 11.1295,8.9606 23.6139,19.0644 36.6826,30.044 6.5344,5.4897 13.215,11.199 19.9453,17.0932 6.7304,5.8943 13.5103,11.9746 20.2442,18.2066 6.7339,6.232 13.4209,12.6162 19.9658,19.1191 6.5449,6.503 12.9484,13.1241 19.1118,19.8311 3.0817,3.3535 6.1025,6.7286 9.0527,10.1206 2.9503,3.392 5.8289,6.801 8.6236,10.2231 2.7946,3.4222 5.506,6.8569 8.1211,10.3008 2.6151,3.4439 5.13396,6.8962 7.54536,10.3535 2.4113,3.4574 4.7143,6.9203 6.8979,10.3828 2.1836,3.4625 4.2484,6.9251 6.1802,10.3843 1.9318,3.4592 3.7317,6.9147 5.3877,10.3623 1.6559,3.4475 3.1674,6.8878 4.5234,10.3155 1.356,3.4275 2.5568,6.8428 3.5889,10.2421 1.032,3.3993 1.8956,6.7829 2.5796,10.1455 0.684,3.3627 1.1882,6.7048 1.5,10.0225 0.3118,3.3176 0.4315,6.6102 0.3471,9.8745 -0.036,1.3871 -0.1078,2.8884 -0.2739,4.5439 -0.1661,1.6556 -0.4266,3.4648 -0.8379,5.4713 -0.4113,2.0064 -0.9747,4.209 -1.746,6.6489 -0.7714,2.4398 -1.7509,5.117 -2.9971,8.0727 -0.8153,1.9334 -1.4594,4.2211 -2.0333,6.895 -0.5737,2.674 -1.0773,5.7349 -1.6128,9.2153 -0.5354,3.4806 -1.1016,7.3806 -1.8017,11.7335 -0.7001,4.3528 -1.5337,9.1579 -2.6016,14.4492 -0.9378,4.647 -2.0734,9.7582 -3.082,14.9107 -0.5043,2.5761 -0.9764,5.163 -1.377,7.7079 -0.4005,2.5449 -0.7289,5.0478 -0.9447,7.4561 -0.216,2.4083 -0.3194,4.721 -0.2696,6.8877 0.05,2.1667 0.2525,4.1875 0.6489,6.0073 0.1982,0.9099 0.4442,1.7688 0.7442,2.5722 0.3,0.8036 0.6544,1.5515 1.0664,2.2354 0.412,0.6839 0.8824,1.3048 1.4165,1.856 0.534,0.5512 1.1312,1.0331 1.7973,1.4385 0.8243,0.5015 1.7911,1.0061 2.8624,1.4897 1.0712,0.4837 2.2464,0.9456 3.4892,1.3579 1.2428,0.4123 2.5531,0.776 3.8921,1.0635 1.3389,0.2875 2.7066,0.4986 4.0664,0.6079 1.3598,0.1093 2.7115,0.1166 4.0166,-0.01 1.3052,-0.1224 2.5647,-0.3747 3.7397,-0.7823 1.1751,-0.4075 2.2664,-0.9707 3.2359,-1.7168 0.9695,-0.7461 1.8164,-1.6744 2.5049,-2.8125 1.6977,-2.8063 3.498,-5.6103 5.2544,-8.4053 1.7563,-2.7949 3.4688,-5.5811 4.9907,-8.3525 9.5984,-17.479 18.7328,-33.7748 27.2432,-48.6049 8.5103,-14.8302 16.397,-28.1946 23.5005,-39.8101 3.5517,-5.8078 6.9071,-11.1788 10.0473,-16.0767 3.1403,-4.898 6.065,-9.3233 8.7539,-13.2407 2.689,-3.9174 5.1426,-7.3262 7.3403,-10.1924 2.1978,-2.8662 4.14,-5.1904 5.8067,-6.9346 1.5885,-1.6624 2.9745,-3.3149 4.1792,-4.9467 1.2047,-1.6319 2.2282,-3.2424 3.0922,-4.8194 0.8642,-1.577 1.5678,-3.1207 2.1344,-4.6186 0.5664,-1.4979 0.9961,-2.9502 1.3081,-4.3448 0.312,-1.3945 0.5073,-2.7319 0.6078,-3.999 0.1006,-1.267 0.1059,-2.4634 0.038,-3.5786 -0.068,-1.1153 -0.2082,-2.1487 -0.4013,-3.0879 -0.193,-0.9392 -0.4381,-1.7849 -0.7134,-2.5239 -1.2194,-3.2738 -2.586,-6.3083 -4.0796,-9.1274 -1.4936,-2.8192 -3.1144,-5.4221 -4.8413,-7.8326 -1.7269,-2.4105 -3.5607,-4.629 -5.48,-6.6767 -1.9192,-2.0478 -3.9235,-3.9248 -5.9941,-5.6558 -2.0706,-1.731 -4.2072,-3.3153 -6.3882,-4.7754 -2.181,-1.4601 -4.4073,-2.796 -6.6577,-4.0312 -2.2504,-1.2352 -4.5254,-2.3701 -6.8042,-3.4263 -2.2788,-1.0562 -4.5613,-2.0344 -6.8277,-2.9575 -4.5327,-1.8463 -8.9993,-3.4714 -13.2363,-5.061 -4.237,-1.5897 -8.2443,-3.1438 -11.8579,-4.8443 -1.8068,-0.8502 -3.5155,-1.7367 -5.105,-2.6836 -1.5895,-0.9468 -3.0603,-1.953 -4.3916,-3.0424 -1.3312,-1.0895 -2.5231,-2.2627 -3.5551,-3.5405 -1.0321,-1.2779 -1.9038,-2.6612 -2.5957,-4.1734 -4.5913,-10.0352 -8.99,-19.4644 -13.2129,-28.3301 -4.223,-8.8656 -8.2697,-17.1669 -12.1583,-24.9448 -3.8885,-7.778 -7.6193,-15.0337 -11.2074,-21.8057 -3.5883,-6.7719 -7.0333,-13.0605 -10.3551,-18.9082 -3.3216,-5.8478 -6.5201,-11.2545 -9.6093,-16.2597 -3.0893,-5.00536 -6.0698,-9.61006 -8.96036,-13.85461 -2.8907,-4.24455 -5.6909,-8.12828 -8.417,-11.69385 -2.7261,-3.56558 -5.3777,-6.81248 -7.9732,-9.78075 -2.5955,-2.96835 -5.1345,-5.658 -7.6333,-8.11088 -2.4988,-2.4528 -4.9585,-4.66935 -7.3945,-6.68842 -2.436,-2.01908 -4.8481,-3.84075 -7.2554,-5.50785 -2.4073,-1.6671 -4.8092,-3.17933 -7.2217,-4.5762 -2.4124,-1.39673 -4.836,-2.67788 -7.2876,-3.8862 -2.4515,-1.20833 -4.9314,-2.34375 -7.456,-3.44528 -5.0492,-2.2032 -10.278,-4.27395 -15.8233,-6.54052 -0.5827,-0.2382 -1.1302,-0.59715 -1.6406,-1.06208 -0.5105,-0.46492 -0.9837,-1.03665 -1.4194,-1.70062 -0.4357,-0.66398 -0.8339,-1.42065 -1.1924,-2.25585 -0.3585,-0.83535 -0.6778,-1.74863 -0.9566,-2.7276 -0.5574,-1.95788 -0.9525,-4.17585 -1.1762,-6.54195 -0.2238,-2.36618 -0.2764,-4.8813 -0.1465,-7.43408 0.1299,-2.55277 0.4414,-5.14342 0.9448,-7.66117 0.5035,-2.51775 1.1993,-4.96208 2.0962,-7.2231 0.4485,-1.13055 0.948,-2.21543 1.4986,-3.2403 0.5505,-1.02473 1.1525,-1.98998 1.8076,-2.88128 0.655,-0.89137 1.3633,-1.7088 2.1254,-2.439 0.7623,-0.7302 1.5775,-1.37317 2.4493,-1.91452 7.6638,-4.7595 14.9018,-9.38895 21.7397,-13.87943 6.8379,-4.49047 13.2756,-8.8413 19.3404,-13.04445 6.0647,-4.20315 11.7562,-8.2578 17.1006,-12.15525 5.3442,-3.89745 10.3422,-7.63852 15.019,-11.2119 9.35346,-7.14675 17.42466,-13.62637 24.42476,-19.36672 7,-5.74035 12.928,-10.74113 17.9971,-14.92823 3.3629,-1.83975 6.6699,-3.55027 9.8686,-5.07127 3.1987,-1.521 6.2892,-2.85233 9.2226,-3.93165 2.9335,-1.07933 5.7092,-1.9065 8.2764,-2.42138 1.2836,-0.25747 2.5154,-0.43695 3.6885,-0.53025 1.1731,-0.0934 2.2883,-0.10087 3.3383,-0.0147 2.752,0.2259 5.9304,0.59273 9.318,1.065 3.3876,0.4722 6.9837,1.0497 10.5688,1.69628 3.5851,0.6465 7.1599,1.36207 10.5044,2.1108 3.3444,0.7488 6.4588,1.5312 9.1245,2.31007 5.9978,1.75253 11.8743,3.38303 17.6367,4.89848 5.7624,1.51537 11.4112,2.91592 16.9541,4.20405 5.5429,1.28812 10.9792,2.46412 16.3183,3.53467 5.3393,1.07055 10.5813,2.03475 15.7325,2.89748 5.1513,0.86272 10.2127,1.62487 15.1919,2.28952 4.9791,0.66465 9.8754,1.23173 14.6982,1.70805 4.8228,0.47633 9.5722,0.86093 14.2544,1.15868 4.6823,0.29767 9.2985,0.50985 13.856,0.6387 4.5575,0.12885 9.0558,0.17527 13.5044,0.14497 4.4486,-0.0303 8.8471,-0.13822 13.2027,-0.31785 4.3554,-0.1797 8.6681,-0.43072 12.9462,-0.75 4.2782,-0.31927 8.5217,-0.70657 12.7383,-1.15575 8.4333,-0.89842 16.7595,-2.04765 25.0415,-3.40725 8.282,-1.3596 16.5208,-2.93002 24.7778,-4.67287 2.9666,-0.6261 5.7919,-1.3311 8.4859,-2.1108 2.694,-0.7797 5.2563,-1.63425 7.6948,-2.55908 2.4385,-0.9249 4.7535,-1.9194 6.9537,-2.98095 2.2,-1.06162 4.2846,-2.18955 6.2636,-3.37942 1.9789,-1.18988 3.8515,-2.44163 5.6265,-3.7515 1.7749,-1.30973 3.4525,-2.67728 5.0405,-4.0986 1.588,-1.42133 3.0862,-2.89643 4.5044,-4.42088 1.4182,-1.52445 2.7569,-3.09915 4.0224,-4.71825 1.2656,-1.61917 2.4589,-3.28387 3.5889,-4.9893 1.1301,-1.70542 2.1964,-3.45202 3.208,-5.23537 2.0233,-3.56663 3.826,-7.28018 5.4785,-11.10788 1.6526,-3.82771 3.1544,-7.76898 4.5733,-11.79052 1.4189,-4.02155 2.7557,-8.12288 4.0781,-12.271 0.6605,-2.07182 1.2916,-5.03484 1.916,-8.78027 0.6244,-3.74544 1.242,-8.27352 1.8736,-13.47803 1.263,-10.40902 2.5828,-23.52191 4.1337,-38.47998 1.551,-14.95808 3.3336,-31.76192 5.5181,-49.55274 1.0923,-8.8954 2.2851,-18.03755 3.6006,-27.31933 1.3155,-9.28178 2.7526,-18.70214 4.3345,-28.15577 1.5819,-9.45361 3.3086,-18.93966 5.2002,-28.35058 1.8915,-9.41092 3.9489,-18.7472 6.1933,-27.90088 1.1222,-4.57684 2.2913,-9.10826 3.5098,-13.58056 1.2185,-4.47231 2.4854,-8.88513 3.8056,-13.22608 1.3203,-4.34095 2.6933,-8.6097 4.1207,-12.79248 1.4273,-4.18277 2.9102,-8.28053 4.4502,-12.27832 1.5399,-3.99778 3.1365,-7.89615 4.7943,-11.68213 1.6579,-3.78598 3.3766,-7.45948 5.1578,-11.00683 1.7812,-3.54736 3.6257,-6.9676 5.5356,-10.24952 1.9099,-3.28191 3.8857,-6.42489 5.9297,-9.41454 2.0441,-2.98966 4.1563,-5.82699 6.3398,-8.49756 2.1837,-2.67059 4.4376,-5.17386 6.7662,-7.49854 2.3285,-2.32469 4.731,-4.4699 7.2099,-6.42188 2.4789,-1.95197 5.0339,-3.71073 7.6685,-5.26318 1.1194,-0.65983 2.3548,-1.41364 3.7632,-2.1914 1.4083,-0.77778 2.99,-1.58062 4.8032,-2.3379 1.8131,-0.75727 3.858,-1.46855 6.1919,-2.06689 2.3339,-0.59834 4.9572,-1.0833 7.9277,-1.38428 1.9431,-0.19675 4.0622,-0.684 6.4453,-1.40625 2.3832,-0.72224 5.0306,-1.67941 8.0259,-2.81689 2.9953,-1.13748 6.3395,-2.45549 10.1192,-3.89795 3.7795,-1.44246 7.9933,-3.0093 12.7294,-4.64649 4.1595,-1.43784 8.8131,-2.92167 13.4487,-4.54541 2.3179,-0.81187 4.6315,-1.6576 6.8775,-2.55175 2.246,-0.89415 4.4234,-1.83563 6.4702,-2.83594 2.0469,-1.00031 3.9632,-2.06009 5.6836,-3.19043 1.7205,-1.13034 3.2464,-2.33099 4.5132,-3.61524 0.6334,-0.64212 1.2016,-1.30564 1.6978,-1.99072 0.4961,-0.68507 0.9197,-1.39301 1.2627,-2.12402 0.3429,-0.73101 0.6054,-1.48471 0.7793,-2.26465 0.1738,-0.77993 0.2587,-1.58515 0.2475,-2.41699 -0.027,-2.05819 -0.3316,-4.69314 -0.9287,-7.49707 -0.2986,-1.40197 -0.6708,-2.8458 -1.1177,-4.28174 -0.4469,-1.43594 -0.9696,-2.86366 -1.5688,-4.23193 -0.5993,-1.36827 -1.2747,-2.67702 -2.0303,-3.87598 -0.7555,-1.19896 -1.5906,-2.2888 -2.5063,-3.2168 -0.9158,-0.928 -1.9128,-1.69459 -2.9927,-2.25 -0.54,-0.2777 -1.1014,-0.50247 -1.6831,-0.66797 -0.5818,-0.16549 -1.1835,-0.27142 -1.8076,-0.31201 -6.1552,-0.40026 -12.3706,-0.69533 -18.2945,-0.79834 -18.6807,-0.32486 -36.1965,-0.8348 -52.2393,-1.5044 -16.0427,-0.66958 -30.6123,-1.49808 -43.4018,-2.4624 -6.3947,-0.48216 -12.345,-0.99895 -17.8111,-1.5454 -5.4659,-0.54647 -10.4486,-1.12254 -14.9091,-1.72706 -4.4605,-0.60451 -8.3993,-1.23772 -11.7773,-1.89404 -3.378,-0.65632 -6.1955,-1.33573 -8.4141,-2.0376 -2.1145,-0.66894 -4.1238,-1.15012 -6.0293,-1.46923 -1.9055,-0.31912 -3.707,-0.47664 -5.4038,-0.49952 -1.6967,-0.0229 -3.2886,0.0893 -4.7768,0.30908 -1.4883,0.2198 -2.8729,0.54768 -4.1529,0.95655 -1.28,0.40887 -2.4554,0.89849 -3.5273,1.44287 -1.072,0.54438 -2.0407,1.14323 -2.9048,1.76953 -0.8642,0.6263 -1.6242,1.28042 -2.2808,1.93506 -0.6565,0.65464 -1.209,1.31005 -1.6581,1.93945 -1.9903,2.78842 -3.7158,5.59497 -5.2047,8.4126 -1.4888,2.81762 -2.7418,5.6456 -3.7866,8.47705 -1.0448,2.83145 -1.8819,5.6662 -2.54,8.4961 -0.6582,2.82988 -1.1374,5.65531 -1.4663,8.46825 -0.329,2.81295 -0.5069,5.61295 -0.564,8.39356 -0.057,2.78061 0.01,5.54201 0.1641,8.2749 0.1573,2.7329 0.4078,5.43812 0.7222,8.10791 0.3144,2.66979 0.6933,5.30421 1.1073,7.89551 0.8281,5.1826 1.7985,10.1929 2.6807,14.96924 0.8823,4.77634 1.676,9.31893 2.1533,13.56592 0.2387,2.12349 0.3984,4.17254 0.4497,6.14062 0.051,1.96808 -0.01,3.8541 -0.1992,5.65137 -0.1934,1.79727 -0.5225,3.50561 -1.018,5.1167 -0.4956,1.61109 -1.1562,3.12564 -2.0112,4.53516 -5.6742,9.35338 -10.9678,18.22327 -15.9024,26.64697 -4.9346,8.4237 -9.5112,16.40119 -13.7535,23.96777 -4.2423,7.56658 -8.1493,14.7219 -11.7465,21.50391 -3.5973,6.78201 -6.8852,13.18977 -9.8848,19.25977 -2.9996,6.06999 -5.7115,11.80335 -8.1606,17.23388 -2.4491,5.43054 -4.6342,10.55824 -6.5801,15.42187 -1.9458,4.86363 -3.6531,9.46325 -5.1431,13.83252 -1.4899,4.36928 -2.7639,8.50956 -3.8452,12.45704 -1.0813,3.94747 -1.9695,7.70157 -2.6895,11.2998 -0.7199,3.59824 -1.2714,7.0393 -1.6772,10.36084 -0.4058,3.32154 -0.6667,6.5242 -0.8056,9.6416 -0.139,3.1174 -0.1554,6.15042 -0.075,9.13623 0.081,2.98582 0.2583,5.9238 0.5112,8.85059 0.2529,2.92679 0.58,5.84142 0.958,8.78174 0.7559,5.88063 1.7154,11.8614 2.688,18.23144 0.1021,0.66937 0.091,1.36736 -0.022,2.08594 -0.1135,0.71858 -0.3302,1.45794 -0.6387,2.20899 -0.3085,0.75104 -0.7096,1.51398 -1.1924,2.28075 -0.4828,0.76677 -1.0466,1.53699 -1.6831,2.30274 -1.2728,1.53149 -2.832,3.04523 -4.5952,4.47217 -1.7632,1.42694 -3.7304,2.76811 -5.8184,3.95654 -2.0879,1.18844 -4.2977,2.22357 -6.5449,3.03955 -1.1235,0.40799 -2.2558,0.76054 -3.3882,1.05029 -1.1323,0.28977 -2.2648,0.51612 -3.3852,0.6709 -1.1205,0.15479 -2.2286,0.23864 -3.3164,0.2417 -1.0879,0.003 -2.1545,-0.0748 -3.189,-0.24023 -1.0345,-0.1654 -2.038,-0.41845 -2.9985,-0.76904 -0.9605,-0.3506 -1.8778,-0.79804 -2.7437,-1.35059 -7.6909,-4.90827 -15.0506,-9.48116 -22.0869,-13.74756 -7.0363,-4.2664 -13.7496,-8.22571 -20.1474,-11.90625 -6.398,-3.68053 -12.4805,-7.08272 -18.2564,-10.2334 -5.7759,-3.15068 -11.2462,-6.05071 -16.4165,-8.72753 -10.3406,-5.35366 -19.4862,-9.81557 -27.5024,-13.60987 -8.0163,-3.7943 -14.9033,-6.92051 -20.7261,-9.60352 -3.1295,-2.24959 -6.1579,-4.50419 -8.9986,-6.75 -2.8406,-2.2458 -5.4931,-4.48232 -7.8676,-6.6958 -2.3745,-2.21347 -4.4711,-4.40403 -6.2022,-6.55664 -0.8655,-1.0763 -1.6401,-2.14348 -2.3115,-3.19921 -0.6714,-1.05573 -1.2396,-2.10025 -1.6948,-3.13184 -1.1966,-2.71177 -2.4864,-5.88488 -3.791,-9.30029 -1.3047,-3.41543 -2.6245,-7.07387 -3.8848,-10.75635 -1.2602,-3.68248 -2.4609,-7.38842 -3.5244,-10.90137 -1.0635,-3.51295 -1.9898,-6.83292 -2.7041,-9.73975 -1.6071,-6.54037 -3.2494,-12.90616 -4.9278,-19.10888 -1.6783,-6.20272 -3.3933,-12.24154 -5.143,-18.12598 -1.7497,-5.88444 -3.5344,-11.61466 -5.3555,-17.20019 -1.8211,-5.58554 -3.6782,-11.027 -5.5708,-16.33301 -1.8926,-5.30602 -3.8205,-10.47708 -5.7847,-15.52295 -1.9641,-5.04587 -3.9642,-9.96638 -6,-14.77149 -2.0357,-4.8051 -4.1078,-9.4949 -6.2153,-14.07861 -2.1075,-4.58371 -4.2514,-9.06118 -6.4307,-13.44287 -2.1792,-4.3817 -4.3933,-8.66666 -6.6445,-12.86573 -2.2511,-4.19905 -4.5382,-8.31282 -6.8613,-12.34863 -2.3231,-4.0358 -4.683,-7.99382 -7.0781,-11.88574 -2.3952,-3.89192 -4.8263,-7.71696 -7.2935,-11.48438 -4.9344,-7.53483 -10.0126,-14.84008 -15.2359,-21.99315 -5.2232,-7.15308 -10.5918,-14.15424 -16.1044,-21.08058 -2.47566,-3.11056 -4.93586,-5.95635 -7.38426,-8.55761 -2.4483,-2.60126 -4.8851,-4.95768 -7.311,-7.08691 -2.426,-2.12925 -4.8411,-4.03158 -7.2495,-5.72608 -2.4084,-1.6945 -4.8099,-3.18098 -7.2056,-4.47803 -2.3957,-1.29704 -4.7854,-2.40444 -7.1734,-3.34131 -2.3879,-0.93687 -4.7736,-1.7034 -7.1586,-2.31738 -2.3851,-0.61398 -4.7702,-1.0764 -7.1573,-1.40478 -2.387,-0.32838 -4.7764,-0.52346 -7.1704,-0.60352 -0.7182,-0.024 -1.4373,-0.036 -2.1577,-0.0366 z"
     id="rect14"
     inkscape:connector-curvature="0" />
  <g
     id="g99"
     inkscape:export-xdpi="90"
     inkscape:export-ydpi="90">
    <g
       id="g179">
      <path
         inkscape:connector-curvature="0"
         style="opacity:1;fill:#f9dd16;fill-opacity:0.98823529;fill-rule:evenodd;stroke:#f9dd16;stroke-width:0.61603326;stroke-miterlimit:4;stroke-dasharray:none;stroke-opacity:0.98823529;paint-order:stroke fill markers"
         d="m 788.92238,868.29495 c 0,0 0,0.008 0,0.0105 -1.0632,3.21202 -2.1129,6.43222 -3.13771,9.66945 -0.98602,3.1146 -1.83922,6.135 -2.56785,9.06742 -0.7287,2.93235 -1.3329,5.77628 -1.81935,8.53853 -0.48652,2.76232 -0.85537,5.442 -1.1148,8.04637 -0.25942,2.60445 -0.4095,5.1336 -0.45697,7.59233 -0.0472,2.45872 0.008,4.84807 0.15675,7.1733 0.14933,2.3253 0.39255,4.58707 0.7236,6.79102 0.33105,2.20395 0.75038,4.34903 1.24807,6.44385 0.49763,2.09483 1.07348,4.13835 1.72261,6.13628 0.6492,1.99785 1.37077,3.95055 2.15625,5.86372 0.78554,1.91318 1.63627,3.78728 2.54302,5.62793 1.81342,3.6813 3.85387,7.2291 6.0615,10.69335 2.20762,3.46432 4.58115,6.84465 7.062,10.1895 2.48092,3.34477 5.06895,6.65415 7.70213,9.97702 0.32655,0.41205 0.69862,0.85065 1.1133,1.314 0,0 0.008,0.007 0.008,0.009 0.4128,0.46103 0.86752,0.9456 1.36372,1.45605 0.942,0.8367 1.87702,1.6743 2.82863,2.5107 1.63334,1.43565 4.09485,3.20153 7.27589,5.2749 1.08751,0.70898 1.75965,1.92735 2.35838,3.31935 18.99233,-24.32512 66.26378,-55.58677 101.38628,-65.56935 -1.45328,-0.58957 -2.87445,-1.16655 -4.37115,-1.77825 -0.58268,-0.2382 -1.13018,-0.59715 -1.64063,-1.06207 -0.51045,-0.46493 -0.9837,-1.03665 -1.41937,-1.70063 -0.43575,-0.66397 -0.83393,-1.42065 -1.19243,-2.25585 -0.3585,-0.83535 -0.67777,-1.74862 -0.95655,-2.7276 -0.55747,-1.95787 -0.9525,-4.17585 -1.17622,-6.54195 -0.2238,-2.36617 -0.27638,-4.8813 -0.14648,-7.43407 0.1299,-2.55278 0.44138,-5.14343 0.94478,-7.66118 0.50347,-2.51775 1.19932,-4.96207 2.09617,-7.2231 0.4485,-1.13055 0.948,-2.21542 1.49858,-3.2403 0.5505,-1.02472 1.15252,-1.98997 1.80765,-2.88127 0.65497,-0.89138 1.36327,-1.7088 2.12542,-2.439 0.28283,-0.2709 0.57548,-0.52583 0.87308,-0.77198 0.0323,-0.0263 0.063,-0.0533 0.0953,-0.0791 0.30345,-0.2469 0.61395,-0.48188 0.93307,-0.70163 -35.9058,8.64165 -95.58607,17.03408 -136.08105,-11.6367 z m 35.2236,125.70405 c -0.0165,0.0217 -0.0345,0.0427 -0.051,0.0645 0.0457,0.0383 0.0845,0.0728 0.13036,0.1113 -0.0255,-0.0607 -0.0532,-0.11573 -0.0791,-0.1758 z m 35.60887,29.0244 c 0.32692,0.2641 0.63945,0.5164 0.96832,0.7822 0.10485,-0.014 0.20078,-0.023 0.30615,-0.037 -0.42907,-0.2432 -0.84997,-0.4967 -1.27447,-0.7457 z"
         id="path1910" />
      <path
         inkscape:connector-curvature="0"
         style="opacity:1;fill:#f9dd16;fill-opacity:0.98823529;fill-rule:evenodd;stroke:#f9dd16;stroke-width:0.61603326;stroke-miterlimit:4;stroke-dasharray:none;stroke-opacity:0.98823529;paint-order:stroke fill markers"
         d="m 1313.1109,649.86035 c -0.025,0.20057 -0.055,0.40178 -0.1011,0.60352 -0.1243,0.55393 -0.3425,1.11106 -0.6138,1.66846 -7e-4,0.002 0,0.005 0,0.007 -0.1065,0.36614 -0.2364,0.73585 -0.3897,1.10889 -0.1247,0.3037 -0.2739,0.60983 -0.4321,0.91698 -0.086,0.1719 -0.1786,0.34441 -0.2739,0.5171 -0.01,0.0181 -0.02,0.036 -0.029,0.0542 0.032,0.10428 0.06,0.20688 0.1187,0.3208 -0.1233,-0.0177 -0.2276,-0.007 -0.3179,0.0249 -0.088,0.14897 -0.1637,0.29746 -0.2577,0.44677 -0.098,0.15559 -0.2134,0.3115 -0.3179,0.46729 -0.1371,0.47334 -0.2541,1.00421 -0.5772,1.29639 -0.3794,0.34316 -0.7851,0.68142 -1.207,1.01514 -0.023,0.0269 -0.05,0.0536 -0.073,0.0806 -0.2636,0.29984 -0.5347,0.59773 -0.8189,0.89502 -0.06,0.0627 -0.1226,0.12497 -0.1831,0.1875 -0.2625,0.26988 -0.5274,0.53891 -0.8057,0.80567 -0.1815,0.17484 -0.373,0.3468 -0.561,0.52002 -0.1708,0.15662 -0.3353,0.31508 -0.5113,0.47021 -0.3954,0.34994 -0.802,0.69627 -1.2231,1.03711 -0.8817,0.71347 -1.8144,1.40468 -2.7876,2.06689 0,6.2e-4 0,7.5e-4 0,10e-4 -0.4857,0.33047 -0.9807,0.65369 -1.4853,0.96826 0,5.7e-4 0,7.5e-4 0,0.002 -0.5048,0.31455 -1.0185,0.62188 -1.5396,0.91846 -2.0879,1.18842 -4.2978,2.22356 -6.5449,3.03954 -0.5627,0.20433 -1.1274,0.39424 -1.6934,0.56983 -0.565,0.17535 -1.1315,0.33559 -1.6977,0.48047 -0.257,0.0658 -0.5137,0.11664 -0.7705,0.17578 -0.3081,0.0709 -0.617,0.14841 -0.9244,0.20947 -0.3745,0.0744 -0.7463,0.12968 -1.1191,0.18897 -0.1903,0.0302 -0.3816,0.0705 -0.5713,0.0967 -1.1194,0.15465 -2.2266,0.2385 -3.3134,0.24171 -0.545,10e-4 -1.0843,-0.0172 -1.6172,-0.0571 -0.531,-0.0397 -1.0555,-0.10065 -1.5718,-0.18311 0,-1.6e-4 0,1.5e-4 0,0 -0.5163,-0.0825 -1.0241,-0.1875 -1.5235,-0.31495 0,-2.3e-4 0,2.4e-4 0,0 -0.2492,-0.0637 -0.4967,-0.13417 -0.7412,-0.20946 -0.2462,-0.0758 -0.4899,-0.15666 -0.7309,-0.24463 -0.9605,-0.35061 -1.8779,-0.79804 -2.7437,-1.35059 -1.7659,-1.12698 -3.5087,-2.23176 -5.2398,-3.32374 23.4976,30.23133 60.5658,87.82187 44.5386,140.56637 0.8364,-0.0412 2.4743,-0.0593 4.4605,-0.066 0.083,-0.0135 0.1671,-0.0255 0.2504,-0.0398 4.9487,-0.8124 9.8817,-1.70835 14.8125,-2.6631 1.2594,-0.24383 2.5187,-0.48435 3.7779,-0.7368 1.2135,-0.2433 2.4278,-0.49748 3.6416,-0.7485 0.8487,-0.17558 1.6969,-0.34523 2.5459,-0.52448 1.0971,-0.23152 2.1682,-0.47805 3.2271,-0.73095 0.3727,-0.089 0.7495,-0.17497 1.1176,-0.26655 0,-3e-4 0,0 0,0 0.7059,-0.17572 1.4043,-0.35527 2.0933,-0.54052 0,-3e-4 0,0 0,0 0.3045,-0.0818 0.601,-0.16823 0.9024,-0.25193 0.3804,-0.10567 0.7643,-0.20925 1.1396,-0.31785 1.1073,-0.32047 2.1871,-0.65655 3.2505,-1.002 0.2302,-0.075 0.4647,-0.1467 0.6928,-0.2226 0,-3.7e-4 0,0 0,0 0.1993,-0.066 0.3927,-0.13642 0.5904,-0.20362 1.0735,-0.3648 2.1294,-0.7392 3.1582,-1.12935 0.4777,-0.1812 0.9467,-0.3672 1.415,-0.55373 0.1293,-0.0517 0.2626,-0.10042 0.3912,-0.15232 0,-4.5e-4 0,0 0,0 0.099,-0.0397 0.1945,-0.0814 0.2929,-0.12158 1.6759,-0.68347 3.2939,-1.40025 4.8516,-2.15182 2.2001,-1.06163 4.2847,-2.18955 6.2637,-3.37943 0.087,-0.0517 0.1701,-0.1059 0.2563,-0.15817 0.5186,-0.315 1.0316,-0.6342 1.5352,-0.95805 0.1201,-0.0769 0.2381,-0.1554 0.3574,-0.23288 0.5102,-0.3324 1.0142,-0.66727 1.5102,-1.00785 0.046,-0.0315 0.091,-0.0622 0.1363,-0.0937 0.3682,-0.53782 0.813,-1.00672 1.4326,-1.31977 0.466,-0.2355 0.9212,-0.47768 1.3755,-0.72075 0.025,-0.0195 0.052,-0.039 0.078,-0.0585 0.6372,-0.48908 1.261,-0.98588 1.8736,-1.48973 0.1106,-0.0913 0.2197,-0.18367 0.3295,-0.2754 0.5456,-0.45457 1.0818,-0.9147 1.607,-1.38135 0.058,-0.0517 0.118,-0.10207 0.1758,-0.15382 1.5879,-1.42133 3.0861,-2.89643 4.5043,-4.42088 1.4183,-1.52445 2.7569,-3.09915 4.0225,-4.71825 1.2656,-1.61917 2.4589,-3.28387 3.5889,-4.9893 1.13,-1.70542 2.1964,-3.45202 3.208,-5.23537 2.0233,-3.56663 3.8259,-7.28018 5.4785,-11.10788 1.6526,-3.82769 3.1543,-7.76896 4.5733,-11.7905 1.4188,-4.02154 2.7557,-8.12288 4.0781,-12.271 0.5228,-1.64031 1.0275,-3.86039 1.5249,-6.56396 -15.1891,5.79077 -47.5587,-14.48681 -99.8657,-71.52979 z"
         id="path1905" />
      <path
         style="font-size:12px;fill:#f9dd16;fill-opacity:0.98823529;fill-rule:evenodd;stroke:#f9dd16;stroke-width:6.35543847pt;stroke-opacity:0.98823529"
         d="m 1490.4961,758.38477 c 0,0 -88.6275,81.6187 -110.1328,90.17968 -15.7292,-0.5768 -130.0584,-51.36862 -124.2871,-45.66406 2.0183,9.26533 -0.6049,18.89541 -4.627,24.12695 -3e-4,4.1e-4 3e-4,0.002 0,0.002 0,0 0,0.002 0,0.002 -0.013,0.0684 -0.023,0.14073 -0.035,0.20898 -4e-4,0.002 0,0.004 0,0.006 -0.013,0.0705 -0.028,0.13677 -0.041,0.20703 -0.2062,1.10283 -0.4246,2.17775 -0.6523,3.23047 -3e-4,10e-4 3e-4,0.003 0,0.004 36.9211,17.92655 73.8463,35.32341 110.7675,53.26953 14.5938,31.81375 28.7038,121.33675 35.2891,171.52925 5e-4,-2e-4 0,3e-4 0,0 1.5517,-0.7823 3.0931,-1.5476 4.6114,-2.2695 4.2649,-2.028 8.3856,-3.8031 12.2968,-5.2422 3.9114,-1.4391 7.6121,-2.542 11.0352,-3.2285 1.7115,-0.3433 3.3537,-0.5826 4.918,-0.707 1.5641,-0.125 3.0511,-0.1345 4.4511,-0.02 3.6694,0.3012 7.9071,0.7903 12.4239,1.42 1.4977,0.2087 3.0592,0.4535 4.6074,0.6914 -11.4405,-40.0512 -38.495,-105.48117 -47.6719,-165.03127 32.2622,-28.48409 75.6656,-64.24826 109.2403,-93.5957 -1.5626,-1.33777 -3.0706,-2.67104 -4.4942,-3.99805 -3.166,-2.95131 -5.9615,-5.87204 -8.2695,-8.74219 -1.1542,-1.43506 -2.1869,-2.85798 -3.082,-4.26562 -0.8954,-1.40764 -1.6529,-2.80033 -2.2598,-4.17578 -0.2507,-0.56822 -0.5209,-1.24043 -0.7774,-1.83789 -1.8608,-2.12701 -3.0936,-4.20532 -3.3007,-6.09766 z"
         transform="scale(0.75)"
         id="path4504-5"
         inkscape:connector-curvature="0" />
      <path
         inkscape:connector-curvature="0"
         style="opacity:1;fill:#f9dd16;fill-opacity:0.98823529;fill-rule:evenodd;stroke:#f9dd16;stroke-width:0.61603326;stroke-miterlimit:4;stroke-dasharray:none;stroke-opacity:0.98823529;paint-order:stroke fill markers"
         d="m 942.42038,280.24951 c -0.96743,-7.4e-4 -1.938,0.0253 -2.90918,0.063 -0.23707,0.009 -0.4746,0.0194 -0.7119,0.0307 -0.96165,0.046 -1.92375,0.10275 -2.88862,0.18164 -2.90461,0.23743 -5.82308,0.61622 -8.75393,1.08399 -5.8617,0.93554 -11.7708,2.22793 -17.70412,3.46582 -1.97565,0.41218 -4.64385,1.29477 -7.92923,2.57519 -3.28522,1.28042 -7.18725,2.95904 -11.63377,4.95996 -1.90298,0.85636 -3.95348,1.79955 -6.0498,2.76856 31.38712,8.67868 30.3729,83.26044 13.5498,121.39746 0,-7.5e-4 0,-0.002 0.007,-0.003 0.17737,-0.0932 0.35939,-0.18061 0.5493,-0.25782 0.62392,-0.25365 1.31392,-0.42123 2.05815,-0.5083 0.74415,-0.0871 1.542,-0.0934 2.38327,-0.0249 0.84128,0.0686 1.7259,0.21161 2.64113,0.4248 1.83037,0.42638 3.7845,1.13062 5.77147,2.06983 1.9869,0.93921 4.0068,2.11319 5.96483,3.47754 1.95802,1.36434 3.85492,2.91981 5.59867,4.62158 1.74368,1.70177 3.33323,3.55045 4.67723,5.50196 0.672,0.97575 1.28347,1.97679 1.82077,2.99852 0.5373,1.02174 1.0005,2.06336 1.37993,3.12012 0.37935,1.05677 0.6747,2.12866 0.873,3.20948 0.19837,1.08083 0.30037,2.17121 0.29445,3.26513 -0.012,2.15954 -0.015,4.28528 -0.0165,6.39844 8.3997,-34.57594 31.5717,-99.28 85.50447,-116.65429 -2.2334,-2.8993 -12.2236,-17.74513 -14.5064,-20.61329 -0.619,-0.77764 -1.2374,-1.53883 -1.8545,-2.28369 -1.23407,-1.48972 -2.46415,-2.91494 -3.69145,-4.27734 -0.61357,-0.6812 -1.22625,-1.34627 -1.83832,-1.99658 -2.44838,-2.60126 -4.88513,-4.95768 -7.31108,-7.08692 -2.42595,-2.12924 -4.8411,-4.03158 -7.2495,-5.72607 -2.4084,-1.6945 -4.80982,-3.18099 -7.20555,-4.47803 -1.19827,-0.64874 -2.39452,-1.24991 -3.59032,-1.80615 -0.59768,-0.27805 -1.19423,-0.54397 -1.79153,-0.79981 -0.5973,-0.25583 -1.19452,-0.50113 -1.79152,-0.73535 -0.59738,-0.23439 -1.1943,-0.45755 -1.79145,-0.6709 -0.59678,-0.2132 -1.19205,-0.41663 -1.7886,-0.60937 -1.19303,-0.38549 -2.38605,-0.73012 -3.57863,-1.03711 -2.38507,-0.61398 -4.77015,-1.07641 -7.15725,-1.40479 -2.38702,-0.32838 -4.77645,-0.52345 -7.17037,-0.60351 -0.7182,-0.024 -1.43738,-0.0359 -2.15775,-0.0366 z m -92.1372,30.96387 c -1.17773,0.5562 -2.32793,1.10024 -3.52875,1.66553 2.29545,-0.42529 3.98947,-0.91832 3.52875,-1.66553 z"
         id="path1896" />
    </g>
    <g
       id="g86">
      <path
         inkscape:connector-curvature="0"
         style="opacity:1;fill:#d30a40;fill-opacity:1;fill-rule:evenodd;stroke:#000000;stroke-width:0.58650994;stroke-miterlimit:4;stroke-dasharray:none;stroke-opacity:1;paint-order:stroke fill markers"
         d="m 778.39455,74.293946 c -257.71765,-0.0046 -441.07412,0.08703 -443.51222,0.234375 -75.35928,3.732521 -112.00418,12.474364 -151.40772,36.244629 -20.88389,12.57271 -37.43218,26.71703 -52.99659,45.08496 -21.27791,25.34186 -39.897347,63.55127 -47.187002,97.24219 -4.038863,18.66261 -7.288733,47.73517 -8.963381,79.85449 -1.379124,27.40458 -1.379124,954.93791 0,981.45851 3.841848,72.8824 12.805766,109.1271 36.940433,149.792 23.64213,39.7808 59.00622,69.7395 103.92627,88.1074 31.42431,12.8675 63.73661,17.9731 128.75243,20.4287 35.26618,1.2769 1373.01493,1.2769 1408.47803,0 65.4099,-2.4556 96.7363,-7.3649 128.5547,-20.4287 52.2097,-21.3146 91.3174,-58.1507 114.5655,-107.7539 14.6778,-31.53 20.8847,-57.9518 25.5146,-109.0284 1.5761,-17.7786 2.3641,-966.13351 0.7881,-1001.88714 -2.9553,-68.36409 -12.314,-108.14543 -34.774,-147.33691 -26.8929,-47.14763 -72.6024,-82.70388 -126.7822,-98.61621 -19.4063,-5.59878 -37.2348,-8.544488 -74.8652,-12.080565 -9.3583,-0.884018 -185.5904,-1.180585 -728.4727,-1.278809 -98.4842,-0.02456 -192.65322,-0.03508 -278.55905,-0.03662 z M 944.57812,280.28613 c 2.39393,0.0801 4.78335,0.27514 7.17038,0.60352 2.3871,0.32838 4.77218,0.7908 7.15725,1.40478 2.38508,0.61398 4.77075,1.38051 7.15868,2.31738 2.38799,0.93687 4.77765,2.04427 7.17337,3.34131 2.39573,1.29705 4.79715,2.78353 7.20555,4.47803 2.4084,1.6945 4.82355,3.59683 7.2495,5.72608 2.42595,2.12923 4.8627,4.48565 7.31107,7.08691 2.44838,2.60126 4.90853,5.44705 7.38428,8.55761 5.5127,6.92634 10.8812,13.9275 16.1045,21.08058 5.2233,7.15307 10.3014,14.45832 15.2358,21.99316 2.4672,3.76741 4.8984,7.59245 7.2935,11.48437 2.3951,3.89192 4.755,7.84994 7.0781,11.88574 2.3231,4.03581 4.6102,8.14958 6.8613,12.34864 2.2512,4.19906 4.4653,8.48402 6.6446,12.86572 2.1792,4.3817 4.3231,8.85916 6.4306,13.44287 2.1075,4.58371 4.1796,9.27351 6.2153,14.07861 2.0358,4.80511 4.0359,9.72562 6,14.77149 1.9642,5.04587 3.8922,10.21693 5.7847,15.52295 1.8926,5.30602 3.7497,10.74747 5.5709,16.33301 1.821,5.58553 3.6057,11.31575 5.3554,17.20019 1.7497,5.88444 3.4647,11.92326 5.1431,18.12598 1.6783,6.20272 3.3206,12.56851 4.9277,19.10888 0.7143,2.90683 1.6406,6.2268 2.7041,9.73975 1.0635,3.51295 2.2642,7.21889 3.5244,10.90137 1.2603,3.68248 2.5802,7.34092 3.8848,10.75635 1.3046,3.41542 2.5944,6.58853 3.791,9.30029 0.4552,1.03159 1.0234,2.07611 1.6949,3.13184 0.6714,1.05573 1.4459,2.12291 2.3115,3.19921 1.731,2.15261 3.8276,4.34317 6.2021,6.55665 2.3745,2.21347 5.027,4.44999 7.8676,6.69579 2.8407,2.24581 5.8691,4.50041 8.9986,6.75 5.8228,2.68302 12.7098,5.80923 20.7261,9.60352 8.0162,3.7943 17.1618,8.25621 27.5024,13.60987 5.1703,2.67682 10.6406,5.57686 16.4166,8.72753 5.7759,3.15068 11.8584,6.55287 18.2563,10.23341 6.3979,3.68053 13.1111,7.63984 20.1474,11.90625 7.0363,4.26639 14.396,8.83928 22.0869,13.74755 0.8659,0.55255 1.7832,0.99999 2.7437,1.35059 0.9605,0.3506 1.9641,0.60365 2.9985,0.76904 1.0345,0.16539 2.1012,0.2433 3.189,0.24024 1.0878,-0.003 2.196,-0.0869 3.3164,-0.24171 1.1204,-0.15478 2.2529,-0.38113 3.3853,-0.67089 1.1323,-0.28976 2.2646,-0.6423 3.3882,-1.0503 2.2471,-0.81598 4.4569,-1.85111 6.5448,-3.03954 2.088,-1.18844 4.0552,-2.52961 5.8185,-3.95655 1.7631,-1.42694 3.3223,-2.94067 4.5951,-4.47216 0.6365,-0.76576 1.2003,-1.53598 1.6831,-2.30275 0.4829,-0.76677 0.884,-1.52971 1.1924,-2.28075 0.3085,-0.75105 0.5252,-1.49041 0.6387,-2.20899 0.1135,-0.71858 0.1242,-1.41657 0.022,-2.08594 -0.9726,-6.37004 -1.9321,-12.35081 -2.688,-18.23144 -0.378,-2.94032 -0.7051,-5.85495 -0.9581,-8.78174 -0.2529,-2.92679 -0.4305,-5.86477 -0.5112,-8.85059 -0.081,-2.98582 -0.064,-6.01883 0.075,-9.13623 0.139,-3.1174 0.3999,-6.32006 0.8057,-9.6416 0.4058,-3.32154 0.9573,-6.7626 1.6772,-10.36084 0.72,-3.59823 1.6082,-7.35233 2.6895,-11.2998 1.0813,-3.94748 2.3552,-8.08776 3.8452,-12.45704 1.49,-4.36927 3.1972,-8.96889 5.143,-13.83252 1.946,-4.86363 4.131,-9.99133 6.5802,-15.42187 2.4491,-5.43053 5.161,-11.16389 8.1606,-17.23388 2.9996,-6.07 6.2874,-12.47776 9.8847,-19.25977 3.5973,-6.78201 7.5043,-13.93733 11.7466,-21.50391 4.2423,-7.56658 8.8189,-15.54407 13.7534,-23.96777 4.9347,-8.4237 10.2283,-17.29359 15.9024,-26.64697 0.855,-1.40952 1.5157,-2.92407 2.0112,-4.53516 0.4956,-1.61109 0.8247,-3.31943 1.0181,-5.1167 0.1934,-1.79727 0.2506,-3.68329 0.1992,-5.65137 -0.051,-1.96808 -0.2111,-4.01713 -0.4497,-6.14062 -0.4773,-4.24699 -1.271,-8.78958 -2.1533,-13.56592 -0.8823,-4.77634 -1.8526,-9.78664 -2.6807,-14.96924 -0.414,-2.5913 -0.793,-5.22572 -1.1074,-7.89551 -0.3144,-2.66979 -0.5648,-5.37501 -0.7221,-8.10791 -0.1574,-2.73289 -0.2212,-5.49429 -0.1642,-8.2749 0.057,-2.78061 0.2351,-5.58061 0.5641,-8.39356 0.3288,-2.81294 0.8081,-5.63837 1.4663,-8.46825 0.6581,-2.8299 1.4952,-5.66465 2.54,-8.4961 1.0447,-2.83145 2.2978,-5.65943 3.7866,-8.47705 1.4888,-2.81763 3.2143,-5.62418 5.2046,-8.4126 0.4492,-0.6294 1.0016,-1.28481 1.6582,-1.93945 0.6565,-0.65464 1.4166,-1.30876 2.2807,-1.93506 0.8642,-0.6263 1.8329,-1.22515 2.9049,-1.76953 1.0719,-0.54438 2.2473,-1.034 3.5273,-1.44287 1.2799,-0.40887 2.6645,-0.73675 4.1528,-0.95655 1.4882,-0.21978 3.0801,-0.33195 4.7768,-0.30908 1.6968,0.0229 3.4983,0.1804 5.4039,0.49952 1.9055,0.31911 3.9147,0.80029 6.0293,1.46923 2.2186,0.70187 5.036,1.38128 8.414,2.0376 3.378,0.65632 7.3169,1.28953 11.7773,1.89404 4.4606,0.60452 9.4432,1.18059 14.9092,1.72706 5.4661,0.54646 11.4164,1.06324 17.8111,1.5454 12.7895,0.96432 27.3591,1.79281 43.4018,2.4624 16.0428,0.6696 33.5586,1.17954 52.2393,1.5044 5.9239,0.10301 12.1393,0.39808 18.2945,0.79834 0.624,0.0406 1.2258,0.14652 1.8075,0.31201 0.5818,0.1655 1.1432,0.39027 1.6832,0.66797 1.0799,0.55541 2.0769,1.322 2.9926,2.25 0.9158,0.928 1.7509,2.01784 2.5064,3.2168 0.7555,1.19896 1.431,2.50771 2.0302,3.87598 0.5993,1.36827 1.122,2.79599 1.5689,4.23193 0.4469,1.43594 0.8191,2.87977 1.1177,4.28174 0.5972,2.80393 0.9012,5.43888 0.9287,7.49707 0.011,0.83184 -0.073,1.63706 -0.2475,2.41699 -0.1739,0.77994 -0.4365,1.53364 -0.7794,2.26465 -0.3429,0.73101 -0.7665,1.43895 -1.2626,2.12402 -0.4962,0.68508 -1.0644,1.3486 -1.6978,1.99072 -1.2669,1.28425 -2.7927,2.4849 -4.5132,3.61524 -1.7205,1.13034 -3.6367,2.19012 -5.6836,3.19043 -2.0468,1.00031 -4.2242,1.94179 -6.4702,2.83594 -2.246,0.89415 -4.5596,1.73988 -6.8775,2.55175 -4.6357,1.62374 -9.2892,3.10757 -13.4487,4.54541 -4.7362,1.63719 -8.9498,3.20403 -12.7294,4.64649 -3.7797,1.44246 -7.1239,2.76047 -10.1192,3.89795 -2.9953,1.13748 -5.6428,2.09465 -8.0259,2.81689 -2.3831,0.72225 -4.5022,1.2095 -6.4453,1.40625 -2.9705,0.30098 -5.5938,0.78594 -7.9278,1.38428 -2.3338,0.59834 -4.3787,1.30962 -6.1918,2.06689 -1.8132,0.75728 -3.3949,1.56012 -4.8032,2.3379 -1.4085,0.77776 -2.6438,1.53157 -3.7632,2.1914 -2.6346,1.55245 -5.1897,3.31121 -7.6685,5.26318 -2.4789,1.95198 -4.8814,4.09719 -7.21,6.42188 -2.3285,2.32468 -4.5825,4.82795 -6.7661,7.49854 -2.1835,2.67057 -4.2958,5.5079 -6.3398,8.49756 -2.0441,2.98965 -4.0198,6.13263 -5.9297,9.41454 -1.9099,3.28192 -3.7545,6.70216 -5.5356,10.24952 -1.7812,3.54735 -3.4999,7.22085 -5.1578,11.00683 -1.6578,3.78598 -3.2545,7.68435 -4.7944,11.68213 -1.5399,3.99779 -3.0228,8.09555 -4.4502,12.27832 -1.4274,4.18278 -2.8003,8.45153 -4.1206,12.79248 -1.3202,4.34095 -2.5871,8.75377 -3.8057,13.22608 -1.2185,4.4723 -2.3875,9.00372 -3.5097,13.58056 -2.2445,9.15368 -4.3018,18.48996 -6.1934,27.90088 -1.8916,9.41092 -3.6183,18.89697 -5.2002,28.35058 -1.5819,9.45363 -3.019,18.87399 -4.3345,28.15577 -1.3155,9.28178 -2.5083,18.42393 -3.6006,27.31933 -2.1844,17.79082 -3.9671,34.59466 -5.518,49.55274 -1.5509,14.95807 -2.8707,28.07096 -4.1338,38.47998 -0.6316,5.20451 -1.2491,9.73259 -1.8736,13.47803 -0.6243,3.74543 -1.2555,6.70845 -1.9159,8.78027 -1.3224,4.14812 -2.6593,8.24945 -4.0781,12.271 -1.419,4.02154 -2.9208,7.96281 -4.5733,11.79052 -1.6526,3.8277 -3.4553,7.54125 -5.4785,11.10788 -1.0116,1.78335 -2.078,3.52995 -3.208,5.23537 -1.13,1.70543 -2.3234,3.37013 -3.5889,4.9893 -1.2656,1.6191 -2.6042,3.1938 -4.0225,4.71825 -1.4182,1.52445 -2.9164,2.99955 -4.5043,4.42088 -1.588,1.42132 -3.2657,2.7888 -5.0406,4.0986 -1.7749,1.30987 -3.6475,2.56162 -5.6265,3.7515 -1.9789,1.18987 -4.0635,2.3178 -6.2636,3.37942 -2.2002,1.06155 -4.5151,2.05605 -6.9536,2.98095 -2.4386,0.92483 -5.0009,1.77938 -7.6949,2.55908 -2.694,0.7797 -5.5192,1.4847 -8.4858,2.1108 -8.2571,1.74285 -16.4958,3.31327 -24.7779,4.67287 -8.2819,1.3596 -16.6082,2.50883 -25.0414,3.40725 -4.2167,0.44918 -8.4602,0.83648 -12.7383,1.15575 -4.2782,0.31928 -8.5908,0.5703 -12.9463,0.75 -4.3555,0.17963 -8.7541,0.28755 -13.2026,0.31785 -4.4486,0.03 -8.9469,-0.0158 -13.5044,-0.14497 -4.5576,-0.12885 -9.1737,-0.34103 -13.856,-0.6387 -4.6822,-0.29775 -9.4316,-0.68235 -14.2544,-1.15868 -4.8228,-0.47632 -9.7191,-1.0434 -14.6982,-1.70805 -4.9792,-0.66465 -10.0406,-1.4268 -15.1919,-2.28952 -5.1513,-0.86273 -10.3932,-1.82693 -15.7325,-2.89748 -5.3392,-1.07055 -10.7754,-2.24655 -16.3183,-3.53467 -5.5429,-1.28813 -11.1917,-2.68868 -16.9541,-4.20405 -5.7625,-1.51545 -11.6389,-3.14595 -17.6368,-4.89848 -2.6656,-0.77887 -5.78,-1.56127 -9.1245,-2.31007 -3.3444,-0.74873 -6.9192,-1.4643 -10.5043,-2.1108 -3.5852,-0.64658 -7.1813,-1.22408 -10.5689,-1.69628 -3.3876,-0.47227 -6.5659,-0.8391 -9.3179,-1.065 -1.05,-0.0862 -2.1652,-0.0787 -3.3383,0.015 -1.1732,0.0933 -2.4049,0.27278 -3.6885,0.53025 -2.5673,0.51488 -5.3429,1.34205 -8.2764,2.42138 -2.9334,1.07932 -6.0239,2.41065 -9.2226,3.93165 -3.1988,1.521 -6.5057,3.23152 -9.8687,5.07127 -5.069,4.1871 -10.997,9.18788 -17.997,14.92823 -7.0001,5.74035 -15.0714,12.21997 -24.42483,19.36672 -4.67677,3.57338 -9.67477,7.31445 -15.01905,11.2119 -5.34435,3.89745 -11.03587,7.9521 -17.1006,12.15525 -6.06472,4.20315 -12.5025,8.55398 -19.34032,13.04445 -6.8379,4.49048 -14.07593,9.11993 -21.73973,13.87943 -0.8718,0.54135 -1.68705,1.18432 -2.44927,1.91452 -0.76215,0.7302 -1.47038,1.54763 -2.12543,2.439 -0.65512,0.8913 -1.25715,1.85648 -1.80765,2.88128 -0.55057,1.02487 -1.05007,2.10975 -1.49857,3.2403 -0.89685,2.26102 -1.5927,4.70535 -2.09618,7.2231 -0.5034,2.51775 -0.81487,5.1084 -0.94477,7.66117 -0.1299,2.55278 -0.0773,5.0679 0.14647,7.43408 0.22373,2.3661 0.61875,4.58407 1.17623,6.54195 0.27877,0.97897 0.59805,1.89225 0.95655,2.7276 0.3585,0.83527 0.75667,1.59187 1.19242,2.25585 0.43568,0.66397 0.90893,1.2357 1.41938,1.70062 0.51045,0.46493 1.05795,0.82388 1.64062,1.06208 5.54528,2.26657 10.77405,4.33732 15.82328,6.54052 2.52465,1.10153 5.00452,2.23695 7.45605,3.44528 2.45152,1.20832 4.87515,2.4894 7.2876,3.8862 2.41245,1.39687 4.8144,2.9091 7.22167,4.5762 2.40728,1.6671 4.81935,3.48877 7.25535,5.50785 2.43608,2.01907 4.89578,4.23562 7.39455,6.68842 2.49878,2.45288 5.03783,5.14253 7.63328,8.11088 2.59552,2.96827 5.24707,6.21517 7.97317,9.78075 2.7261,3.56557 5.5263,7.4493 8.41703,11.69385 2.89065,4.24455 5.87115,8.84925 8.96035,13.85455 3.0893,5.0052 6.2877,10.4119 9.6094,16.2597 3.3218,5.8477 6.7668,12.1362 10.355,18.9082 3.5882,6.772 7.319,14.0277 11.2075,21.8057 3.8886,7.7779 7.9353,16.0791 12.1583,24.9448 4.2228,8.8657 8.6216,18.2949 13.2129,28.3301 0.6918,1.5122 1.5636,2.8955 2.5956,4.1733 1.0321,1.2779 2.2239,2.4511 3.5552,3.5406 1.3312,1.0893 2.8021,2.0955 4.3916,3.0424 1.5895,0.9469 3.2982,1.8334 5.105,2.6836 3.6136,1.7005 7.6209,3.2546 11.8579,4.8442 4.237,1.5897 8.7036,3.2148 13.2363,5.0611 2.2664,0.9231 4.5488,1.9013 6.8276,2.9575 2.2789,1.0562 4.5539,2.1911 6.8043,3.4263 2.2503,1.2352 4.4767,2.5711 6.6577,4.0312 2.1809,1.4601 4.3176,3.0444 6.3881,4.7754 2.0706,1.731 4.075,3.608 5.9942,5.6558 1.9192,2.0477 3.7531,4.2662 5.48,6.6767 1.7269,2.4105 3.3476,5.0134 4.8413,7.8326 1.4936,2.8191 2.8602,5.8536 4.0796,9.1274 0.2752,0.739 0.5203,1.5847 0.7134,2.5239 0.193,0.9392 0.3335,1.9726 0.4013,3.0879 0.068,1.1152 0.062,2.3116 -0.038,3.5786 -0.1005,1.2671 -0.2959,2.6045 -0.6079,3.999 -0.312,1.3946 -0.7416,2.8469 -1.3081,4.3448 -0.5665,1.4979 -1.2702,3.0416 -2.1343,4.6186 -0.8641,1.577 -1.8876,3.1875 -3.0923,4.8194 -1.2047,1.6318 -2.5906,3.2843 -4.1792,4.9467 -1.6667,1.7442 -3.6089,4.0684 -5.8067,6.9346 -2.1977,2.8662 -4.6513,6.275 -7.3403,10.1924 -2.6889,3.9174 -5.6136,8.3427 -8.7538,13.2407 -3.1403,4.8979 -6.4957,10.2689 -10.0474,16.0767 -7.1035,11.6155 -14.9902,24.9799 -23.5005,39.8101 -8.5103,14.8301 -17.6448,31.1259 -27.2432,48.6049 -1.5219,2.7714 -3.2343,5.5576 -4.9907,8.3525 -1.7563,2.795 -3.5566,5.599 -5.2544,8.4053 -0.6885,1.1381 -1.5354,2.0664 -2.5049,2.8125 -0.9695,0.7461 -2.0608,1.3093 -3.2358,1.7168 -1.1751,0.4076 -2.4346,0.6599 -3.7398,0.7823 -1.3051,0.1224 -2.6568,0.1151 -4.0166,0.01 -1.3597,-0.1093 -2.7274,-0.3204 -4.0663,-0.608 -1.3391,-0.2875 -2.6493,-0.6511 -3.8922,-1.0634 -1.2428,-0.4124 -2.418,-0.8743 -3.4892,-1.358 -1.0713,-0.4836 -2.0381,-0.9882 -2.8624,-1.4897 -0.6661,-0.4054 -1.2633,-0.8872 -1.7973,-1.4385 -0.534,-0.5512 -1.0045,-1.172 -1.4165,-1.8559 -0.412,-0.684 -0.7664,-1.4319 -1.0664,-2.2354 -0.3,-0.8035 -0.5459,-1.6623 -0.7442,-2.5722 -0.3963,-1.8199 -0.5991,-3.8407 -0.6489,-6.0074 -0.049,-2.1666 0.054,-4.4793 0.2696,-6.8877 0.2158,-2.4083 0.5442,-4.9111 0.9448,-7.456 0.4005,-2.5449 0.8727,-5.1318 1.377,-7.708 1.0086,-5.1525 2.1441,-10.2637 3.0819,-14.9107 1.068,-5.2912 1.9015,-10.0963 2.6016,-14.4492 0.7002,-4.3529 1.2663,-8.2529 1.8018,-11.7334 0.5354,-3.4805 1.039,-6.5414 1.6128,-9.2153 0.5738,-2.6739 1.218,-4.9617 2.0332,-6.895 1.2462,-2.9558 2.2257,-5.633 2.9971,-8.0728 0.7713,-2.4398 1.3348,-4.6424 1.7461,-6.6489 0.4113,-2.0065 0.6717,-3.8157 0.8379,-5.4712 0.166,-1.6556 0.2382,-3.1569 0.2739,-4.544 0.084,-3.2642 -0.035,-6.5569 -0.3472,-9.8745 -0.3118,-3.3176 -0.816,-6.6598 -1.5,-10.0225 -0.6839,-3.3626 -1.5476,-6.7461 -2.5796,-10.1454 -1.032,-3.3993 -2.2329,-6.8146 -3.5889,-10.2422 -1.356,-3.4276 -2.8674,-6.8679 -4.5234,-10.3154 -1.656,-3.4476 -3.4559,-6.9032 -5.3877,-10.3624 -1.9318,-3.4591 -3.9966,-6.9217 -6.1802,-10.3843 -2.1836,-3.4624 -4.4866,-6.9254 -6.8979,-10.3827 -2.4114,-3.4574 -4.93033,-6.9096 -7.54543,-10.3535 -2.61502,-3.444 -5.32642,-6.8787 -8.12107,-10.3009 -2.79465,-3.422 -5.6733,-6.8311 -8.62358,-10.223 -2.9502,-3.3921 -5.97097,-6.7671 -9.05272,-10.1207 -6.16335,-6.707 -12.56685,-13.3281 -19.1118,-19.831 -6.54488,-6.5029 -13.23188,-12.8872 -19.96583,-19.1192 -6.73387,-6.232 -13.51372,-12.3122 -20.24415,-18.2065 -6.73035,-5.8943 -13.4109,-11.6035 -19.94527,-17.0933 -13.06875,-10.9795 -25.55318,-21.0833 -36.68265,-30.044 -11.1294,-8.9605 -20.90423,-16.7783 -28.55415,-23.18545 -3.825,-3.20363 -7.11885,-6.05452 -9.78518,-8.51955 -2.66632,-2.46503 -4.70535,-4.54395 -6.02055,-6.20363 -2.63317,-3.32287 -5.2212,-6.63225 -7.70212,-9.97702 -2.48085,-3.34485 -4.85438,-6.72517 -7.062,-10.1895 -2.20763,-3.46425 -4.24808,-7.01205 -6.0615,-10.69335 -0.90675,-1.84065 -1.75748,-3.71475 -2.54303,-5.62793 -0.78547,-1.91317 -1.50705,-3.86587 -2.15625,-5.86372 -0.64912,-1.99793 -1.22497,-4.04145 -1.7226,-6.13628 -0.4977,-2.09482 -0.91702,-4.2399 -1.24807,-6.44385 -0.33105,-2.20394 -0.57428,-4.46572 -0.7236,-6.79102 -0.1494,-2.32522 -0.20423,-4.71457 -0.15675,-7.1733 0.0472,-2.45872 0.19755,-4.98787 0.45697,-7.59232 0.25943,-2.60438 0.62828,-5.28405 1.1148,-8.04638 0.48645,-2.76225 1.09065,-5.60617 1.81935,-8.53852 0.72863,-2.93243 1.58183,-5.95283 2.56785,-9.06743 2.7444,-8.66917 5.61458,-17.24077 8.6733,-25.75342 3.0588,-8.51265 6.30533,-16.9671 9.80423,-25.4004 1.74945,-4.21658 3.56175,-8.42745 5.44485,-12.63863 1.88302,-4.21125 3.83722,-8.42325 5.86957,-12.6387 2.03243,-4.21545 4.1439,-8.4342 6.34133,-12.6636 2.1975,-4.22932 4.48162,-8.4678 6.85987,-12.72067 2.37825,-4.25288 4.85055,-8.52113 7.4253,-12.80715 2.57475,-4.28595 5.25203,-8.58968 8.03903,-12.91845 2.78707,-4.32877 5.68327,-8.68225 8.69827,-13.06346 3.015,-4.38121 6.14858,-8.79013 9.40725,-13.2334 3.25868,-4.44327 6.6435,-8.92058 10.1616,-13.43555 3.5181,-4.51496 7.16963,-9.06776 10.9629,-13.66406 3.7932,-4.5963 7.72695,-9.23606 11.811,-13.92334 4.08413,-4.68727 8.31833,-9.42256 12.70898,-14.21045 1.95142,-2.12795 4.1394,-4.6655 6.42045,-7.42969 2.28097,-2.76418 4.6551,-5.75459 6.97995,-8.79052 2.32485,-3.03594 4.59967,-6.11689 6.68265,-9.06006 2.08297,-2.94318 3.97447,-5.74944 5.52975,-8.23536 0.5571,-0.89043 1.07325,-1.88268 1.55272,-2.96777 0.47955,-1.08509 0.92145,-2.26314 1.33013,-3.52294 0.81727,-2.51961 1.50015,-5.368 2.0742,-8.46681 0.57405,-3.09879 1.03942,-6.4469 1.4238,-9.96533 0.38445,-3.51842 0.6876,-7.20782 0.93607,-10.98632 -0.74857,-6.72363 -1.7436,-14.76836 -2.80957,-24.30176 -1.06598,-9.5334 -2.20245,-20.55522 -3.23145,-33.23291 -0.5145,-6.33884 -1.0026,-13.09167 -1.44143,-20.2793 -0.43882,-7.18763 -0.82815,-14.80995 -1.14697,-22.88818 -0.31883,-8.07823 -0.5676,-16.6124 -0.72218,-25.62305 -0.1545,-9.01064 -0.2151,-18.49755 -0.1611,-28.48242 0.008,-1.09392 -0.0961,-2.18431 -0.29445,-3.26513 -0.1983,-1.08083 -0.49365,-2.15271 -0.873,-3.20948 -0.37942,-1.05676 -0.84262,-2.09838 -1.37992,-3.12012 -0.5373,-1.02173 -1.14878,-2.02278 -1.82078,-2.99853 -1.344,-1.9515 -2.93355,-3.80018 -4.67722,-5.50195 -1.74375,-1.70178 -3.64065,-3.25725 -5.59868,-4.62159 -1.95802,-1.36434 -3.97792,-2.53833 -5.96482,-3.47754 -1.98698,-0.93921 -3.9411,-1.64344 -5.77148,-2.06982 -0.91522,-0.21319 -1.79985,-0.35627 -2.64112,-0.4248 -0.84128,-0.0685 -1.63913,-0.0622 -2.38328,0.0249 -0.74422,0.0871 -1.43422,0.25464 -2.05815,0.5083 -0.62392,0.25365 -1.18207,0.59273 -1.6626,1.02392 -4.57267,4.10346 -8.8434,8.0001 -13.1367,11.65577 -2.14665,1.82783 -4.29945,3.59506 -6.49807,5.29834 -2.19863,1.70326 -4.44308,3.34279 -6.7749,4.91308 -2.33183,1.57029 -4.75013,3.07257 -7.29638,4.50146 -2.54625,1.4289 -5.2206,2.7844 -8.0625,4.06348 -2.84182,1.27909 -5.85157,2.48119 -9.07027,3.60206 -3.21878,1.12086 -6.64598,2.16003 -10.32278,3.11425 -3.6768,0.95423 -7.60372,1.82385 -11.81985,2.60303 -4.21605,0.77917 -8.72197,1.46825 -13.55857,2.06397 -4.8366,0.59571 -10.00365,1.09762 -15.54203,1.50146 -5.5383,0.40384 -11.44725,0.70905 -17.76855,0.9126 -6.3213,0.20354 -13.05427,0.30545 -20.23972,0.30029 -7.18547,-0.005 -14.82323,-0.11757 -22.9541,-0.33985 -8.13087,-0.22227 -16.7556,-0.55413 -25.91308,-1.00195 -9.15749,-0.44781 -18.84845,-1.0116 -29.11377,-1.69336 -1.54695,-0.10273 -3.07738,0.0315 -4.59962,0.37061 -1.52223,0.33908 -3.0366,0.88373 -4.55127,1.60254 -1.51466,0.7188 -3.02994,1.612 -4.55419,2.64843 -1.52426,1.03644 -3.05741,2.21634 -4.6084,3.50831 -3.10198,2.58391 -6.27409,5.61713 -9.58594,8.85058 -3.31184,3.23345 -6.76345,6.66702 -10.42236,10.05322 -1.82946,1.6931 -3.71088,3.37456 -5.65284,5.0127 -1.94194,1.63814 -3.94452,3.23234 -6.01611,4.75342 -2.07159,1.52108 -4.21227,2.96911 -6.43066,4.31104 -2.21839,1.34192 -4.51415,2.57754 -6.89648,3.67821 -2.38233,1.10068 -4.85015,2.06645 -7.41358,2.86377 -2.56343,0.79733 -5.22172,1.42701 -7.9834,1.85889 -2.76167,0.43188 -5.62741,0.6651 -8.60449,0.66943 -2.97708,0.005 -6.06576,-0.22075 -9.27539,-0.70605 -0.72448,-0.10955 -1.53418,-0.29843 -2.40381,-0.58301 -0.86963,-0.28458 -1.79939,-0.66387 -2.76562,-1.15283 -0.96624,-0.48897 -1.96816,-1.08786 -2.98242,-1.81055 -1.01427,-0.72268 -2.04047,-1.57041 -3.05421,-2.55615 -1.01373,-0.98574 -2.01484,-2.11005 -2.97948,-3.38818 -0.96465,-1.27813 -1.89278,-2.70971 -2.75977,-4.30957 -0.86699,-1.59987 -1.67278,-3.36791 -2.39356,-5.31885 -0.72077,-1.95094 -1.35632,-4.08467 -1.88232,-6.41602 -0.55188,-2.44607 -1.42717,-5.44965 -2.60743,-8.97217 -1.18024,-3.52251 -2.66544,-7.56446 -4.437,-12.08642 -1.77157,-4.52196 -3.82947,-9.52335 -6.15528,-14.96777 -2.32581,-5.44443 -4.92066,-11.33071 -7.76367,-17.62061 -5.68602,-12.57979 -12.36895,-26.77414 -19.90137,-42.27393 -7.53242,-15.49978 -15.91375,-32.30549 -24.99609,-50.10937 -1.44008,-2.82294 -2.76192,-5.7081 -4.06934,-8.63965 -1.30741,-2.93155 -2.60013,-5.91007 -3.97998,-8.9165 -0.55961,-1.2193 -0.86315,-2.49098 -0.95361,-3.79248 -0.0905,-1.30152 0.0316,-2.63274 0.32519,-3.96827 0.29358,-1.33552 0.7581,-2.6762 1.35059,-3.99755 0.59249,-1.32136 1.31333,-2.62285 2.11963,-3.88184 0.8063,-1.25899 1.69734,-2.47413 2.63232,-3.62255 0.93499,-1.14844 1.91304,-2.23006 2.89161,-3.21973 0.97857,-0.98968 1.95896,-1.88769 2.89599,-2.67041 0.93704,-0.78273 1.83073,-1.44996 2.64111,-1.97755 0.65505,-0.42645 1.33509,-0.74981 2.0376,-0.97851 0.70251,-0.2287 1.42747,-0.36308 2.17236,-0.41016 0.7449,-0.0471 1.51028,-0.007 2.29248,0.11133 0.78221,0.11843 1.58205,0.31521 2.39649,0.58301 1.62888,0.53561 3.31755,1.35428 5.04492,2.39062 1.72737,1.03635 3.49404,2.29069 5.2793,3.69873 1.78526,1.40805 3.58807,2.9694 5.39062,4.62013 1.80256,1.65071 3.60405,3.39041 5.3833,5.15478 3.5585,3.52874 7.02932,7.15605 10.25098,10.36523 3.6683,3.65409 7.04984,6.84258 10.12939,9.67822 3.07956,2.83565 5.8575,5.31828 8.31739,7.56152 2.45988,2.24325 4.60232,4.24617 6.41162,6.12306 1.8093,1.87689 3.28578,3.62767 4.41357,5.36425 1.72428,2.65473 3.41232,4.89813 5.04346,6.81446 1.63114,1.91631 3.20588,3.50554 4.69922,4.85448 1.49334,1.34895 2.9064,2.45757 4.21728,3.41016 1.31088,0.9526 2.5183,1.74978 3.60206,2.47705 2.55022,1.71183 5.22485,3.24567 8.01415,4.61133 2.78931,1.36566 5.69431,2.56262 8.70411,3.60059 3.00979,1.03797 6.12519,1.91676 9.33691,2.64551 3.21172,0.72874 6.51899,1.30811 9.91406,1.74609 3.39507,0.43798 6.87717,0.7352 10.43702,0.90088 3.55984,0.16568 7.19825,0.19947 10.90429,0.11133 3.70605,-0.0882 7.47932,-0.29905 11.31299,-0.62256 3.83367,-0.32352 7.72769,-0.76037 11.67041,-1.30078 3.94272,-0.54041 7.93457,-1.1845 11.96777,-1.92335 4.0332,-0.73884 8.1073,-1.57142 12.2124,-2.49023 4.10511,-0.91881 8.24147,-1.92409 12.39991,-3.00439 4.15844,-1.08031 8.33855,-2.23662 12.53174,-3.45996 8.38638,-2.44668 16.82382,-5.16035 25.23779,-8.06836 8.41401,-2.90801 16.80418,-6.00983 25.09716,-9.23145 8.29297,-3.22162 16.48935,-6.56319 24.5127,-9.95068 8.02335,-3.38749 15.8748,-6.82044 23.47995,-10.22608 15.21037,-6.81127 29.436,-13.51131 42.08205,-19.50879 12.64605,-5.99747 23.71297,-11.29259 32.60595,-15.29443 4.44652,-2.00092 8.34847,-3.67954 11.63377,-4.95996 3.28538,-1.28042 5.95358,-2.16301 7.92923,-2.57519 5.93332,-1.23789 11.84242,-2.53029 17.70412,-3.46582 2.93085,-0.46778 5.84933,-0.84656 8.75393,-1.08399 2.90452,-0.23743 5.79472,-0.33484 8.66745,-0.23877 z"
         id="rect132" />
      <g
         id="g79">
        <path
           id="path3184"
           d="m 1173.6853,1061.7349 c 0,21.1542 -15.7263,38.3031 -35.1255,38.3031 -19.3993,0 -35.1256,-17.1489 -35.1256,-38.3031 0,-21.1542 15.7263,-38.303 35.1256,-38.303 19.3992,0 35.1255,17.1488 35.1255,38.303 z"
           style="fill:#f9dd16;fill-opacity:0.98823529;stroke:none;stroke-width:24.77801895"
           inkscape:connector-curvature="0" />
        <path
           inkscape:connector-curvature="0"
           id="path3184-4"
           d="m 669.23012,584.98773 c -16.80027,-10.5771 -22.55646,-34.0029 -12.85683,-52.32297 9.69965,-18.32008 31.18206,-24.59699 47.98233,-14.01989 16.80026,10.5771 22.55645,34.00286 12.85681,52.32295 -9.69964,18.32007 -31.18205,24.59701 -47.98231,14.01991 z"
           style="fill:#ffd11c;fill-opacity:1;stroke:none;stroke-width:24.77801895" />
        <path
           inkscape:connector-curvature="0"
           id="path3184-48"
           d="m 1299.5999,336.02412 c 16.8003,-10.5771 38.2827,-4.30016 47.9823,14.0199 9.6997,18.32009 3.9435,41.74587 -12.8568,52.32297 -16.8002,10.5771 -38.2826,4.30018 -47.9823,-14.01991 -9.6996,-18.32007 -3.9434,-41.74586 12.8568,-52.32296 z"
           style="fill:#f9dd16;fill-opacity:0.98823529;stroke:none;stroke-width:24.77801895" />
      </g>
    </g>
  </g>
</svg>
