<?xml version="1.0" encoding="UTF-8" standalone="no"?>
<svg
   xmlns:dc="http://purl.org/dc/elements/1.1/"
   xmlns:cc="http://creativecommons.org/ns#"
   xmlns:rdf="http://www.w3.org/1999/02/22-rdf-syntax-ns#"
   xmlns:svg="http://www.w3.org/2000/svg"
   xmlns="http://www.w3.org/2000/svg"
   xmlns:sodipodi="http://sodipodi.sourceforge.net/DTD/sodipodi-0.dtd"
   xmlns:inkscape="http://www.inkscape.org/namespaces/inkscape"
   version="1.0"
   width="2096.000000pt"
   height="1648.000000pt"
   viewBox="0 0 2096.000000 1648.000000"
   preserveAspectRatio="xMidYMid meet"
   id="svg10"
   sodipodi:docname="old-church-slavonic.svg"
   inkscape:version="0.92.5 (2060ec1f9f, 2020-04-08)">
  <defs
     id="defs14" />
  <sodipodi:namedview
     pagecolor="#ffffff"
     bordercolor="#666666"
     borderopacity="1"
     objecttolerance="10"
     gridtolerance="10"
     guidetolerance="10"
     inkscape:pageopacity="0"
     inkscape:pageshadow="2"
     inkscape:window-width="1326"
     inkscape:window-height="717"
     id="namedview12"
     showgrid="false"
     inkscape:zoom="0.21480583"
     inkscape:cx="2374.2592"
     inkscape:cy="1172.6497"
     inkscape:window-x="40"
     inkscape:window-y="24"
     inkscape:window-maximized="1"
     inkscape:current-layer="svg10"
     inkscape:snap-bbox="true"
     inkscape:bbox-paths="true"
     inkscape:bbox-nodes="true"
     inkscape:snap-bbox-edge-midpoints="true"
     inkscape:snap-bbox-midpoints="true" />
  <metadata
     id="metadata2">
Created by potrace 1.16, written by Peter Selinger 2001-2019
<rdf:RDF>
  <cc:Work
     rdf:about="">
    <dc:format>image/svg+xml</dc:format>
    <dc:type
       rdf:resource="http://purl.org/dc/dcmitype/StillImage" />
  </cc:Work>
</rdf:RDF>
</metadata>
  <path
     style="fill:#000000;fill-opacity:0.98431373;stroke:none;stroke-width:0.13333334"
     d="M 1214.4961 1040.4902 C 1216.8692 1040.5365 1219.0393 1040.8999 1220.8047 1041.4805 L 1220.8047 1040.4902 C 1218.6355 1040.4902 1216.6663 1040.4904 1214.4961 1040.4902 z "
     id="path1065"
     transform="scale(0.75)" />
  <path
     style="fill:#000000;fill-opacity:0.98431373;stroke:none;stroke-width:0.13333334"
     d="M 2470.9102 2098.8301 C 2466.6842 2099.503 2462.5918 2100.243 2458.2227 2100.8535 C 2449.3316 2102.0958 2440.111 2103.2122 2430.4277 2104.2168 C 2420.7445 2105.2214 2410.5979 2106.1153 2399.8555 2106.9102 C 2389.113 2107.705 2377.7756 2108.4026 2365.707 2109.0156 C 2353.6385 2109.6287 2340.8394 2110.1579 2327.1777 2110.6172 C 2324.5082 2110.7069 2321.3732 2110.7631 2318.6367 2110.8477 C 2325.9854 2110.7838 2346.7439 2110.7354 2348.666 2110.666 C 2403.3581 2108.6068 2440.3961 2105.2563 2470.9102 2098.8301 z "
     id="path1063"
     transform="scale(0.75)" />
  <g
     id="g1308">
    <g
       id="g1297">
      <path
         style="fill:#000000;fill-opacity:0.98431373;stroke:none;stroke-width:0.13333334"
         d="M 1030.3008 76.615234 C 681.47566 76.608968 433.3 76.733595 430 76.933594 C 328 82.00026 278.39973 93.866162 225.06641 126.13281 C 196.79973 143.19948 174.40066 162.40066 153.33398 187.33398 C 124.53399 221.73398 99.333464 273.60066 89.466797 319.33398 C 84.000129 344.66733 79.600651 384.13244 77.333984 427.73242 C 75.467319 464.93242 75.467319 1724 77.333984 1760 C 82.533984 1858.9333 94.667347 1908.134 127.33398 1963.334 C 159.33398 2017.334 207.2 2058.0003 268 2082.9336 C 310.53333 2100.4003 354.26758 2107.3327 442.26758 2110.666 C 462.97116 2111.4178 828.90826 2111.7812 1225.2402 2111.8809 L 1225.2402 1479.9746 L 1225.2402 710.14062 L 2714.3359 710.14062 C 2714.3355 709.68402 2714.3364 709.0536 2714.3359 708.59766 L 1225.916 708.59766 L 1225.916 76.691406 C 1255.9883 76.684686 1283.3212 76.669637 1310.4082 76.652344 C 1213.87 76.634212 1116.6844 76.61678 1030.3008 76.615234 z M 1214.4961 1040.4902 C 1216.6663 1040.4904 1218.6355 1040.4902 1220.8047 1040.4902 L 1220.8047 1041.4805 C 1219.0393 1040.8999 1216.8692 1040.5365 1214.4961 1040.4902 z "
         id="path4"
         transform="scale(0.75)" />
      <path
         sodipodi:nodetypes="cssscssscccssscssscssscccssscssscssscccssscssscssscccsssc"
         inkscape:connector-curvature="0"
         id="path6"
         d="m 439.95627,390.06107 c 0,-14.8899 6.2869,-29.6881 17.0856,-40.2168 10.7986,-10.5286 25.9762,-16.6582 41.2477,-16.6582 15.2716,0 30.4494,6.1296 41.248,16.6582 10.7987,10.5287 17.0854,25.3269 17.0854,40.2168 15.2715,0 30.4493,6.1296 41.248,16.6583 10.7986,10.5287 17.0853,25.3268 17.0853,40.2167 0,14.8898 -6.2867,29.688 -17.0853,40.2167 -10.7987,10.5287 -25.9765,16.6583 -41.248,16.6583 v 138.1249 h 141.6667 c 0,-14.8898 6.2869,-29.6879 17.0855,-40.2166 10.7987,-10.5287 25.9762,-16.6583 41.2478,-16.6583 15.2716,0 30.4494,6.1296 41.248,16.6583 10.7987,10.5287 17.0854,25.3268 17.0854,40.2166 15.2715,0 30.4493,6.1296 41.248,16.6583 10.7986,10.5287 17.0852,25.3269 17.0852,40.2167 0,14.8899 -6.2866,29.6881 -17.0852,40.2168 -10.7987,10.5287 -25.9765,16.6583 -41.248,16.6583 0,14.8898 -6.2867,29.6879 -17.0854,40.2166 -10.7986,10.5288 -25.9764,16.6583 -41.248,16.6583 -15.2716,0 -30.4491,-6.1295 -41.2478,-16.6583 -10.7986,-10.5287 -17.0855,-25.3268 -17.0855,-40.2166 h -141.6667 v 381.87483 c 15.2715,0 30.4493,6.1296 41.248,16.6582 10.7986,10.5287 17.0853,25.3269 17.0853,40.2167 0,14.8898 -6.2867,29.6881 -17.0853,40.2168 -10.7987,10.5287 -25.9765,16.6582 -41.248,16.6582 0,14.8898 -6.2867,29.6882 -17.0854,40.2169 -10.7986,10.5287 -25.9764,16.6582 -41.248,16.6582 -15.2715,0 -30.4491,-6.1295 -41.2477,-16.6582 -10.7987,-10.5287 -17.0856,-25.3271 -17.0856,-40.2169 -15.2716,0 -30.4491,-6.1295 -41.2478,-16.6582 -10.7988,-10.5287 -17.0855,-25.327 -17.0855,-40.2168 0,-14.8898 6.2867,-29.688 17.0855,-40.2167 10.7987,-10.5286 25.9762,-16.6582 41.2478,-16.6582 V 755.68607 h -141.6667 c 0,14.8898 -6.2867,29.6879 -17.0854,40.2166 -10.7987,10.5288 -25.9763,16.6583 -41.2479,16.6583 -15.2717,0 -30.4493,-6.1295 -41.248,-16.6583 -10.7987,-10.5287 -17.0855,-25.3268 -17.0855,-40.2166 -15.2716,0 -30.4492,-6.1296 -41.2479,-16.6583 -10.7986,-10.5287 -17.0854,-25.3269 -17.0854,-40.2168 0,-14.8898 6.2868,-29.688 17.0854,-40.2167 10.7987,-10.5287 25.9763,-16.6583 41.2479,-16.6583 0,-14.8898 6.2868,-29.6879 17.0855,-40.2166 10.7987,-10.5287 25.9763,-16.6583 41.248,-16.6583 15.2716,0 30.4492,6.1296 41.2479,16.6583 10.7987,10.5287 17.0854,25.3268 17.0854,40.2166 h 141.6667 v -138.1249 c -15.2716,0 -30.4491,-6.1296 -41.2478,-16.6583 -10.7988,-10.5287 -17.0855,-25.3269 -17.0855,-40.2167 0,-14.8899 6.2867,-29.688 17.0855,-40.2167 10.7987,-10.5287 25.9762,-16.6583 41.2478,-16.6583 z"
         style="fill:#e4d00a;fill-opacity:0.95686275;stroke:none;stroke-width:1.64570165" />
    </g>
    <g
       id="g1293">
      <g
         id="g1274">
        <path
           id="path1232"
           d="m 982.80615,57.489258 c -20.31525,0.01297 -40.81493,0.02425 -63.36915,0.02929 V 531.44825 h 1116.3149 c -0.1014,-110.75377 -0.3091,-199.88628 -0.7514,-209.94874 -3,-69.6 -12.4998,-110.1 -35.2998,-150 -27.3,-47.99999 -73.7012,-84.198925 -128.7012,-100.398924 -19.7,-5.7 -37.799,-8.700293 -75.999,-12.300293 -9.5,-0.9 -188.4,-1.200781 -739.5,-1.300781 -25.7011,-0.0065 -47.6405,-0.0055 -72.69435,-0.01025 z"
           style="fill:#003893;fill-opacity:1;stroke:none;stroke-width:0.10000001"
           inkscape:connector-curvature="0" />
        <path
           id="path1235"
           d="M 2035.7519,532.60546 H 918.93015 V 1109.981 H 2035.3433 c 0.4104,-176.44985 0.5624,-408.17278 0.4086,-577.37554 z"
           style="fill:#ffffff;fill-opacity:0.98431373;stroke:none;stroke-width:0.10000001"
           inkscape:connector-curvature="0" />
        <path
           id="path1061"
           d="M 2035.3433,1109.981 H 918.93015 v 473.9297 c 39.82912,0.01 71.41095,0.056 111.90535,0.057 9.5062,7e-4 18.6941,0 28.084,0 316.0311,-0.01 617.6373,-0.2912 680.058,-0.8335 2.0524,-0.064 4.4037,-0.1056 6.4058,-0.1729 10.2463,-0.3445 19.8456,-0.7413 28.897,-1.2012 9.0514,-0.4597 17.5545,-0.9829 25.6113,-1.579 8.0568,-0.5962 15.6668,-1.2666 22.9292,-2.0201 7.2625,-0.7534 14.1779,-1.5907 20.8462,-2.5224 3.2769,-0.4579 6.3462,-1.0129 9.5157,-1.5176 14.1606,-2.9822 26.4704,-6.8386 38.8168,-11.9224 53,-21.6999 92.6999,-59.2007 116.2998,-109.7007 14.9,-32.1 21.2014,-59 25.9014,-111 0.4816,-5.4482 0.8496,-105.5673 1.1426,-231.5185 z"
           style="fill:#dd0000;fill-opacity:1;stroke:none;stroke-width:0.10000001"
           inkscape:connector-curvature="0" />
      </g>
      <path
         inkscape:connector-curvature="0"
         id="path3348"
         d="m 1467.5195,1083.0656 c -20.0106,-0.622 -40.8423,-3.8499 -60.9953,-9.4514 -3.3889,-0.9418 -6.2538,-1.8361 -6.3668,-1.987 -0.1733,-0.2318 -10.4419,-3.8188 -12.3223,-4.3046 -0.4961,-0.1281 -5.4707,-2.0842 -10.4741,-4.1186 -0.4517,-0.1838 -0.9138,-0.3628 -1.0267,-0.398 -0.1131,-0.035 -1.2912,-0.5592 -2.6184,-1.1648 -1.327,-0.6054 -2.4787,-1.1008 -2.5592,-1.1008 -0.8001,0 -15.561,-7.3877 -22.5477,-11.2848 -1.1296,-0.6302 -2.4682,-1.3517 -2.9748,-1.6036 -0.5064,-0.2519 -0.9224,-0.551 -0.9241,-0.6647 0,-0.1136 10.701,-10.9073 23.7838,-23.9861 l 23.787,-23.7793 2.3024,1.0897 c 1.2661,0.5995 3.3617,1.4483 4.6569,1.8861 1.2951,0.4378 4.4805,1.6184 7.0785,2.6233 9.7383,3.7672 21.8867,7.292 32.038,9.2956 2.3722,0.4681 4.7287,0.9447 5.2369,1.0591 l 0.9242,0.208 v -58.01293 -58.01288 l -64.1995,64.18512 c -63.6858,63.67159 -64.2057,64.17849 -64.9612,63.34359 -0.419,-0.4628 -0.9365,-0.8415 -1.1502,-0.8415 -0.2135,0 -1.7098,-1.1642 -3.325,-2.5871 -1.6151,-1.4228 -3.3987,-2.881 -3.9635,-3.2401 -2.5946,-1.6508 -29.1629,-28.25711 -29.1629,-29.20491 0,-0.1848 -1.2477,-1.7934 -2.7725,-3.57493 -4.2621,-4.9791 -8.7284,-10.60914 -8.7284,-11.0026 0,-0.19469 -0.6187,-0.9853 -1.375,-1.757 -0.7562,-0.77172 -2.7653,-3.43585 -4.4646,-5.9203 -12.2242,-17.87273 -22.5397,-37.98777 -29.9138,-58.33109 -2.2826,-6.2976 -6.4705,-19.593 -7.1598,-22.73025 l -0.2804,-1.27571 h 34.0615 34.0614 l 1.5588,4.20926 c 3.522,9.5112 9.6221,22.05326 15.3294,31.51804 2.6618,4.41428 7.8165,12.1642 8.4283,12.67194 0.3941,0.32706 10.4268,-9.4731 41.369,-40.41014 l 40.8488,-40.84173 h -91.0079 -91.0081 l -0.4918,-4.82525 c -1.0517,-10.31963 -1.3244,-15.94188 -1.3397,-27.61679 -0.032,-24.42043 2.4249,-43.90065 8.4941,-67.348 1.0231,-3.95258 2.1989,-7.92571 2.613,-8.82917 0.6613,-1.4427 4.331,-12.11203 4.732,-13.75703 0.2199,-0.9023 6.9166,-17.07206 8.4388,-20.37636 3.035,-6.5877 9.2708,-18.63665 10.7406,-20.7529 0.4165,-0.59952 0.7571,-1.29252 0.7571,-1.53994 0,-0.24748 0.1393,-0.44994 0.3095,-0.44994 0.1701,0 11.0112,10.70099 24.0916,23.78002 l 23.7825,23.78001 -0.9107,1.93735 c -1.0889,2.31576 -2.528,5.90466 -2.712,6.76286 -0.072,0.33873 -0.9576,2.74113 -1.9667,5.33852 -3.7271,9.59436 -7.1596,21.39798 -9.3143,32.03136 -0.4805,2.37154 -0.9601,4.72772 -1.0654,5.23592 l -0.1918,0.924 h 58.0248 58.0251 l -64.1566,-64.16541 -64.1565,-64.16541 0.9022,-1.14504 c 0.4964,-0.62978 2.1501,-2.60479 3.675,-4.38894 1.5248,-1.78405 2.7725,-3.36481 2.7725,-3.51275 0,-0.14784 1.0991,-1.49916 2.4422,-3.00291 1.3431,-1.50376 4.1046,-4.60235 6.1366,-6.88584 6.5353,-7.34424 19.13,-18.85176 29.4453,-26.90386 22.7771,-17.77953 48.7991,-31.93509 75.7875,-41.2272 5.1946,-1.7885 19.0049,-5.94759 19.7488,-5.94759 0.1883,0 0.3425,15.31336 0.3425,34.02965 v 34.02964 l -2.5671,0.9212 c -13.818,4.95857 -33.5044,15.25812 -44.2064,23.12777 l -2.2074,1.62337 40.8174,40.81054 40.8176,40.81053 0.1034,-90.8879 0.1034,-90.888 4.8253,-0.49155 c 13.7992,-1.40568 33.86,-1.79153 46.1051,-0.88675 21.9774,1.62392 43.0249,5.68416 62.7565,12.10612 8.4891,2.7629 17.8346,6.25628 18.1643,6.78991 0.1306,0.21109 2.2623,1.23022 4.7374,2.26473 8.2662,3.45506 19.2512,8.88643 25.6535,12.68393 1.0167,0.60301 2.1719,1.20213 2.5673,1.33156 0.3953,0.12934 0.7187,0.3528 0.7187,0.49661 0,0.14373 -10.7041,10.96215 -23.787,24.0408 l -23.787,23.77938 -2.3065,-1.09184 c -1.2685,-0.60054 -2.4053,-1.09184 -2.5259,-1.09184 -0.1209,0 -1.1787,-0.43766 -2.3506,-0.97262 -3.2852,-1.49939 -9.0428,-3.74391 -9.7298,-3.79291 -0.3388,-0.0241 -3.481,-0.98015 -6.9826,-2.12434 -9.262,-3.02649 -17.2907,-5.05104 -27.0067,-6.8103 l -1.3348,-0.24166 v 57.99468 57.99477 l 64.1789,-64.14303 64.1789,-64.14309 1.1452,0.90215 c 0.6299,0.49622 2.6054,2.14955 4.3898,3.67415 1.7845,1.52452 3.3779,2.77192 3.5412,2.77192 0.4177,0 4.0884,3.45458 13.0508,12.28228 8.2521,8.12847 14.8603,15.21689 19.0584,20.44379 1.4165,1.76361 4.1011,5.05448 5.966,7.31315 12.7255,15.41314 26.1754,38.83575 35.4894,61.80409 3.4009,8.387 10.3927,29.80271 10.3927,31.83288 0,0.1092 -15.3048,0.19848 -34.011,0.19848 h -34.0112 l -1.7782,-4.61992 c -3.9644,-10.29934 -9.6281,-21.93839 -15.1372,-31.10738 -2.6053,-4.3361 -7.8043,-12.14764 -8.4312,-12.66774 -0.4008,-0.33257 -10.2065,9.24374 -41.3741,40.40594 l -40.8488,40.8418 h 91.008 91.0081 l 0.4917,4.82517 c 1.0502,10.30393 1.3191,15.94446 1.3264,27.82213 0.011,16.65051 -0.825,27.41269 -3.3214,42.79317 -1.8526,11.4139 -5.7031,28.16046 -7.1567,31.12534 -0.3322,0.6776 -1.1846,3.07992 -1.8942,5.3386 -0.7096,2.25858 -1.7505,5.4001 -2.313,6.98116 -0.5624,1.58108 -1.0829,3.1518 -1.1566,3.4906 -0.1986,0.9138 -6.9,17.0772 -8.625,20.80322 -1.9273,4.16298 -6.9216,14.24718 -7.1878,14.51342 -0.113,0.11292 -0.4625,0.66032 -0.7767,1.21636 -1.1248,1.9904 -2.6281,4.75424 -3.0781,5.65895 -0.252,0.50649 -0.5535,0.92221 -0.6702,0.924 -0.1499,0.006 -46.1062,-45.80037 -47.5917,-47.43269 -0.087,-0.0951 0.3293,-1.2005 0.9241,-2.45646 0.5949,-1.25604 1.0818,-2.38249 1.0818,-2.50328 0,-0.12071 0.4363,-1.17826 0.97,-2.35006 0.5336,-1.17172 1.3366,-3.23928 1.7846,-4.59448 0.4479,-1.35512 2.0329,-6.06744 3.5225,-10.47177 2.7711,-8.19442 4.9259,-16.16829 6.4364,-23.81819 0.4682,-2.37152 0.9451,-4.72772 1.0593,-5.23585 l 0.208,-0.924 h -58.0238 -58.0237 l 64.1475,64.13602 64.1477,64.13604 -0.8947,1.17973 c -0.492,0.6489 -2.1422,2.63714 -3.6671,4.41832 -1.5249,1.78119 -2.7725,3.37187 -2.7725,3.53503 0,0.36652 -2.8999,3.48063 -10.653,11.44068 -3.2902,3.3781 -5.9434,6.2665 -5.896,6.4189 0.1838,0.5889 -13.6779,12.7974 -21.2397,18.707 -23.1797,18.1148 -49.3201,32.3122 -76.6274,41.6184 -5.261,1.7928 -18.4953,5.7548 -19.223,5.7548 -0.145,0 -0.2637,-15.3097 -0.2637,-34.0216 v -34.0215 l 4.2101,-1.5607 c 9.3744,-3.4748 22.1143,-9.66438 31.5247,-15.31598 4.3333,-2.60263 12.1498,-7.80261 12.6692,-8.42834 0.3315,-0.39907 -9.2991,-10.25586 -40.4143,-41.36348 l -40.8494,-40.83948 v 91.0007 91.00068 l -4.6209,0.4662 c -12.5722,1.2682 -24.5499,1.6568 -38.0966,1.2357 z"
         style="fill:#000000;stroke-width:0.41070142" />
    </g>
  </g>
</svg>
